<svg width="255" height="107" viewBox="0 0 255 107" fill="none" xmlns="http://www.w3.org/2000/svg">
<path d="M136.314 32.1172H57.301L50.7228 38.7164H142.892L136.314 32.1172Z" fill="url(#paint0_linear_37_573)"/>
<path d="M183.785 35.4073L180.052 31.6733H175.821L179.553 35.4073H183.785Z" fill="url(#paint1_linear_37_573)"/>
<path d="M175.821 35.4073L172.088 31.6733H167.856L171.589 35.4073H175.821Z" fill="url(#paint2_linear_37_573)"/>
<path d="M167.856 35.4073L164.124 31.6733H159.892L163.643 35.4073H167.856Z" fill="url(#paint3_linear_37_573)"/>
<path d="M159.892 35.4073L156.16 31.6733H151.928L155.679 35.4073H159.892Z" fill="url(#paint4_linear_37_573)"/>
<path d="M151.928 35.4073L148.196 31.6733H143.964L147.715 35.4073H151.928Z" fill="url(#paint5_linear_37_573)"/>
<path d="M232.235 33.5587C232.232 33.4367 232.254 33.3154 232.3 33.2021C232.346 33.0888 232.414 32.9859 232.5 32.8996C232.586 32.8132 232.689 32.7453 232.802 32.6997C232.915 32.6542 233.037 32.632 233.159 32.6345C233.404 32.6345 233.639 32.7319 233.812 32.9052C233.985 33.0785 234.083 33.3136 234.083 33.5587C234.078 33.8024 233.979 34.0347 233.807 34.207C233.635 34.3794 233.402 34.4782 233.159 34.483C232.914 34.483 232.679 34.3856 232.505 34.2123C232.332 34.0389 232.235 33.8038 232.235 33.5587ZM226.691 33.5587C226.689 33.4367 226.711 33.3154 226.757 33.2021C226.802 33.0888 226.87 32.9859 226.956 32.8996C227.043 32.8132 227.145 32.7453 227.259 32.6997C227.372 32.6542 227.493 32.632 227.615 32.6345C227.86 32.6345 228.095 32.7319 228.269 32.9052C228.442 33.0785 228.539 33.3136 228.539 33.5587C228.534 33.8024 228.436 34.0347 228.263 34.207C228.091 34.3794 227.859 34.4782 227.615 34.483C227.37 34.483 227.135 34.3856 226.962 34.2123C226.789 34.0389 226.691 33.8038 226.691 33.5587ZM221.148 33.5587C221.145 33.4367 221.168 33.3154 221.213 33.2021C221.259 33.0888 221.327 32.9859 221.413 32.8996C221.499 32.8132 221.602 32.7453 221.715 32.6997C221.828 32.6542 221.95 32.632 222.072 32.6345C222.317 32.6345 222.552 32.7319 222.725 32.9052C222.898 33.0785 222.996 33.3136 222.996 33.5587C222.991 33.8024 222.892 34.0347 222.72 34.207C222.548 34.3794 222.315 34.4782 222.072 34.483C221.827 34.483 221.592 34.3856 221.419 34.2123C221.245 34.0389 221.148 33.8038 221.148 33.5587ZM215.604 33.5587C215.602 33.4367 215.624 33.3154 215.67 33.2021C215.715 33.0888 215.783 32.9859 215.869 32.8996C215.956 32.8132 216.059 32.7453 216.172 32.6997C216.285 32.6542 216.406 32.632 216.528 32.6345C216.773 32.6345 217.008 32.7319 217.182 32.9052C217.355 33.0785 217.452 33.3136 217.452 33.5587C217.448 33.8024 217.349 34.0347 217.176 34.207C217.004 34.3794 216.772 34.4782 216.528 34.483C216.283 34.483 216.048 34.3856 215.875 34.2123C215.702 34.0389 215.604 33.8038 215.604 33.5587ZM210.061 33.5587C210.058 33.4367 210.081 33.3154 210.126 33.2021C210.172 33.0888 210.24 32.9859 210.326 32.8996C210.412 32.8132 210.515 32.7453 210.628 32.6997C210.742 32.6542 210.863 32.632 210.985 32.6345C211.23 32.6345 211.465 32.7319 211.638 32.9052C211.811 33.0785 211.909 33.3136 211.909 33.5587C211.904 33.8024 211.805 34.0347 211.633 34.207C211.461 34.3794 211.228 34.4782 210.985 34.483C210.74 34.483 210.505 34.3856 210.332 34.2123C210.158 34.0389 210.061 33.8038 210.061 33.5587ZM204.517 33.5587C204.515 33.4367 204.537 33.3154 204.583 33.2021C204.628 33.0888 204.696 32.9859 204.782 32.8996C204.869 32.8132 204.972 32.7453 205.085 32.6997C205.198 32.6542 205.319 32.632 205.441 32.6345C205.686 32.6345 205.921 32.7319 206.095 32.9052C206.268 33.0785 206.365 33.3136 206.365 33.5587C206.361 33.8024 206.262 34.0347 206.089 34.207C205.917 34.3794 205.685 34.4782 205.441 34.483C205.196 34.483 204.961 34.3856 204.788 34.2123C204.615 34.0389 204.517 33.8038 204.517 33.5587ZM198.974 33.5587C198.971 33.4367 198.994 33.3154 199.039 33.2021C199.085 33.0888 199.153 32.9859 199.239 32.8996C199.325 32.8132 199.428 32.7453 199.541 32.6997C199.655 32.6542 199.776 32.632 199.898 32.6345C200.143 32.6345 200.378 32.7319 200.551 32.9052C200.724 33.0785 200.822 33.3136 200.822 33.5587C200.817 33.8024 200.718 34.0347 200.546 34.207C200.374 34.3794 200.141 34.4782 199.898 34.483C199.653 34.483 199.418 34.3856 199.245 34.2123C199.071 34.0389 198.974 33.8038 198.974 33.5587ZM193.43 33.5587C193.428 33.4367 193.45 33.3154 193.496 33.2021C193.541 33.0888 193.609 32.9859 193.695 32.8996C193.782 32.8132 193.885 32.7453 193.998 32.6997C194.111 32.6542 194.232 32.632 194.354 32.6345C194.599 32.6345 194.834 32.7319 195.008 32.9052C195.181 33.0785 195.278 33.3136 195.278 33.5587C195.274 33.8024 195.175 34.0347 195.002 34.207C194.83 34.3794 194.598 34.4782 194.354 34.483C194.109 34.483 193.874 34.3856 193.701 34.2123C193.528 34.0389 193.43 33.8038 193.43 33.5587Z" fill="#00DEFB"/>
<path d="M195.759 95.4839L191.712 99.5506H195.555L199.621 95.4839H195.759Z" fill="url(#paint6_linear_37_573)"/>
<path d="M203.667 95.4839L199.621 99.5506H203.464L207.511 95.4839H203.667Z" fill="url(#paint7_linear_37_573)"/>
<path d="M211.576 95.4839L207.511 99.5506H211.373L215.42 95.4839H211.576Z" fill="url(#paint8_linear_37_573)"/>
<path d="M219.466 95.4839L215.42 99.5506H219.263L223.328 95.4839H219.466Z" fill="url(#paint9_linear_37_573)"/>
<path d="M227.375 95.4839L223.328 99.5506H227.172L231.237 95.4839H227.375Z" fill="url(#paint10_linear_37_573)"/>
<path d="M255 46.3506V38.7163H18.8293L0 57.5526V69.1242L3.28913 72.4146V88.6075L0 91.8978V99.5506H30.3043L33.5935 96.2418H112.588L115.896 99.5506H186.575L193.172 92.9515H248.403L255 86.3523V80.6959V69.1242L251.711 65.8339V49.6595L255 46.3506Z" fill="url(#paint11_linear_37_573)"/>
<path d="M5.54346 94.005V59.8446L21.1391 44.2617H249.457V84.0601L246.112 87.4058H190.88L184.284 94.005H5.54346Z" fill="#130229"/>
<g opacity="0.6">
<g style="mix-blend-mode:overlay" opacity="0.6">
<g style="mix-blend-mode:overlay" opacity="0.6">
<path d="M13.3413 -26V107" stroke="white" stroke-width="0.11" stroke-miterlimit="10"/>
</g>
<g style="mix-blend-mode:overlay" opacity="0.6">
<path d="M23.2642 -26V107" stroke="white" stroke-width="0.11" stroke-miterlimit="10"/>
</g>
<g style="mix-blend-mode:overlay" opacity="0.6">
<path d="M33.187 -26V107" stroke="white" stroke-width="0.11" stroke-miterlimit="10"/>
</g>
<g style="mix-blend-mode:overlay" opacity="0.6">
<path d="M43.1097 -26V107" stroke="white" stroke-width="0.11" stroke-miterlimit="10"/>
</g>
<g style="mix-blend-mode:overlay" opacity="0.6">
<path d="M53.0511 -26V107" stroke="white" stroke-width="0.11" stroke-miterlimit="10"/>
</g>
<g style="mix-blend-mode:overlay" opacity="0.6">
<path d="M62.9739 -26V107" stroke="white" stroke-width="0.11" stroke-miterlimit="10"/>
</g>
<g style="mix-blend-mode:overlay" opacity="0.6">
<path d="M72.8967 -26V107" stroke="white" stroke-width="0.11" stroke-miterlimit="10"/>
</g>
<g style="mix-blend-mode:overlay" opacity="0.6">
<path d="M82.8196 -26V107" stroke="white" stroke-width="0.11" stroke-miterlimit="10"/>
</g>
<g style="mix-blend-mode:overlay" opacity="0.6">
<path d="M92.7609 -26V107" stroke="white" stroke-width="0.11" stroke-miterlimit="10"/>
</g>
<g style="mix-blend-mode:overlay" opacity="0.6">
<path d="M102.684 -26V107" stroke="white" stroke-width="0.11" stroke-miterlimit="10"/>
</g>
<g style="mix-blend-mode:overlay" opacity="0.6">
<path d="M112.607 -26V107" stroke="white" stroke-width="0.11" stroke-miterlimit="10"/>
</g>
<g style="mix-blend-mode:overlay" opacity="0.6">
<path d="M122.529 -26V107" stroke="white" stroke-width="0.11" stroke-miterlimit="10"/>
</g>
<g style="mix-blend-mode:overlay" opacity="0.6">
<path d="M132.471 -26V107" stroke="white" stroke-width="0.11" stroke-miterlimit="10"/>
</g>
<g style="mix-blend-mode:overlay" opacity="0.6">
<path d="M142.393 -26V107" stroke="white" stroke-width="0.11" stroke-miterlimit="10"/>
</g>
<g style="mix-blend-mode:overlay" opacity="0.6">
<path d="M152.316 -26V107" stroke="white" stroke-width="0.11" stroke-miterlimit="10"/>
</g>
<g style="mix-blend-mode:overlay" opacity="0.6">
<path d="M162.239 -26V107" stroke="white" stroke-width="0.11" stroke-miterlimit="10"/>
</g>
<g style="mix-blend-mode:overlay" opacity="0.6">
<path d="M172.18 -26V107" stroke="white" stroke-width="0.11" stroke-miterlimit="10"/>
</g>
<g style="mix-blend-mode:overlay" opacity="0.6">
<path d="M182.103 -26V107" stroke="white" stroke-width="0.11" stroke-miterlimit="10"/>
</g>
<g style="mix-blend-mode:overlay" opacity="0.6">
<path d="M192.026 -26V107" stroke="white" stroke-width="0.11" stroke-miterlimit="10"/>
</g>
<g style="mix-blend-mode:overlay" opacity="0.6">
<path d="M201.949 -26V107" stroke="white" stroke-width="0.11" stroke-miterlimit="10"/>
</g>
<g style="mix-blend-mode:overlay" opacity="0.6">
<path d="M211.89 -26V107" stroke="white" stroke-width="0.11" stroke-miterlimit="10"/>
</g>
<g style="mix-blend-mode:overlay" opacity="0.6">
<path d="M221.813 -26V107" stroke="white" stroke-width="0.11" stroke-miterlimit="10"/>
</g>
<g style="mix-blend-mode:overlay" opacity="0.6">
<path d="M231.736 -26V107" stroke="white" stroke-width="0.11" stroke-miterlimit="10"/>
</g>
<g style="mix-blend-mode:overlay" opacity="0.6">
<path d="M241.659 -26V107" stroke="white" stroke-width="0.11" stroke-miterlimit="10"/>
</g>
</g>
<g style="mix-blend-mode:overlay" opacity="0.6">
<g style="mix-blend-mode:overlay" opacity="0.6">
<path d="M251.009 1.33936H3.99133" stroke="white" stroke-width="0.11" stroke-miterlimit="10"/>
</g>
<g style="mix-blend-mode:overlay" opacity="0.6">
<path d="M251.009 11.1362H3.99133" stroke="white" stroke-width="0.11" stroke-miterlimit="10"/>
</g>
<g style="mix-blend-mode:overlay" opacity="0.6">
<path d="M251.009 20.915H3.99133" stroke="white" stroke-width="0.11" stroke-miterlimit="10"/>
</g>
<g style="mix-blend-mode:overlay" opacity="0.6">
<path d="M251.009 30.7119H3.99133" stroke="white" stroke-width="0.11" stroke-miterlimit="10"/>
</g>
<g style="mix-blend-mode:overlay" opacity="0.6">
<path d="M251.009 40.4907H3.99133" stroke="white" stroke-width="0.11" stroke-miterlimit="10"/>
</g>
<g style="mix-blend-mode:overlay" opacity="0.6">
<path d="M251.009 50.2876H3.99133" stroke="white" stroke-width="0.11" stroke-miterlimit="10"/>
</g>
<g style="mix-blend-mode:overlay" opacity="0.6">
<path d="M251.009 60.0664H3.99133" stroke="white" stroke-width="0.11" stroke-miterlimit="10"/>
</g>
<g style="mix-blend-mode:overlay" opacity="0.6">
<path d="M251.009 69.8633H3.99133" stroke="white" stroke-width="0.11" stroke-miterlimit="10"/>
</g>
<g style="mix-blend-mode:overlay" opacity="0.6">
<path d="M251.009 79.6606H3.99133" stroke="white" stroke-width="0.11" stroke-miterlimit="10"/>
</g>
<g style="mix-blend-mode:overlay" opacity="0.6">
<path d="M251.009 89.439H3.99133" stroke="white" stroke-width="0.11" stroke-miterlimit="10"/>
</g>
<g style="mix-blend-mode:overlay" opacity="0.6">
<path d="M251.009 99.2363H3.99133" stroke="white" stroke-width="0.11" stroke-miterlimit="10"/>
</g>
</g>
</g>
<defs>
<linearGradient id="paint0_linear_37_573" x1="-0.923963" y1="35.4075" x2="255.48" y2="35.4075" gradientUnits="userSpaceOnUse">
<stop stop-color="#CE18C5"/>
<stop offset="0.05" stop-color="#B414B6"/>
<stop offset="0.15" stop-color="#890E9D"/>
<stop offset="0.25" stop-color="#67098A"/>
<stop offset="0.34" stop-color="#4F067B"/>
<stop offset="0.43" stop-color="#400473"/>
<stop offset="0.5" stop-color="#3B0370"/>
<stop offset="0.57" stop-color="#3A0772"/>
<stop offset="0.63" stop-color="#37137A"/>
<stop offset="0.7" stop-color="#322787"/>
<stop offset="0.77" stop-color="#2A4298"/>
<stop offset="0.83" stop-color="#2166AF"/>
<stop offset="0.9" stop-color="#1692CB"/>
<stop offset="0.96" stop-color="#08C5EB"/>
<stop offset="1" stop-color="#00E5FF"/>
</linearGradient>
<linearGradient id="paint1_linear_37_573" x1="175.821" y1="151.945" x2="1278.85" y2="151.945" gradientUnits="userSpaceOnUse">
<stop stop-color="#CE18C5"/>
<stop offset="0.05" stop-color="#B414B6"/>
<stop offset="0.15" stop-color="#890E9D"/>
<stop offset="0.25" stop-color="#67098A"/>
<stop offset="0.34" stop-color="#4F067B"/>
<stop offset="0.43" stop-color="#400473"/>
<stop offset="0.5" stop-color="#3B0370"/>
<stop offset="0.57" stop-color="#3A0772"/>
<stop offset="0.63" stop-color="#37137A"/>
<stop offset="0.7" stop-color="#322787"/>
<stop offset="0.77" stop-color="#2A4298"/>
<stop offset="0.83" stop-color="#2166AF"/>
<stop offset="0.9" stop-color="#1692CB"/>
<stop offset="0.96" stop-color="#08C5EB"/>
<stop offset="1" stop-color="#00E5FF"/>
</linearGradient>
<linearGradient id="paint2_linear_37_573" x1="167.856" y1="151.945" x2="1270.89" y2="151.945" gradientUnits="userSpaceOnUse">
<stop stop-color="#CE18C5"/>
<stop offset="0.05" stop-color="#B414B6"/>
<stop offset="0.15" stop-color="#890E9D"/>
<stop offset="0.25" stop-color="#67098A"/>
<stop offset="0.34" stop-color="#4F067B"/>
<stop offset="0.43" stop-color="#400473"/>
<stop offset="0.5" stop-color="#3B0370"/>
<stop offset="0.57" stop-color="#3A0772"/>
<stop offset="0.63" stop-color="#37137A"/>
<stop offset="0.7" stop-color="#322787"/>
<stop offset="0.77" stop-color="#2A4298"/>
<stop offset="0.83" stop-color="#2166AF"/>
<stop offset="0.9" stop-color="#1692CB"/>
<stop offset="0.96" stop-color="#08C5EB"/>
<stop offset="1" stop-color="#00E5FF"/>
</linearGradient>
<linearGradient id="paint3_linear_37_573" x1="159.892" y1="151.945" x2="1262.92" y2="151.945" gradientUnits="userSpaceOnUse">
<stop stop-color="#CE18C5"/>
<stop offset="0.05" stop-color="#B414B6"/>
<stop offset="0.15" stop-color="#890E9D"/>
<stop offset="0.25" stop-color="#67098A"/>
<stop offset="0.34" stop-color="#4F067B"/>
<stop offset="0.43" stop-color="#400473"/>
<stop offset="0.5" stop-color="#3B0370"/>
<stop offset="0.57" stop-color="#3A0772"/>
<stop offset="0.63" stop-color="#37137A"/>
<stop offset="0.7" stop-color="#322787"/>
<stop offset="0.77" stop-color="#2A4298"/>
<stop offset="0.83" stop-color="#2166AF"/>
<stop offset="0.9" stop-color="#1692CB"/>
<stop offset="0.96" stop-color="#08C5EB"/>
<stop offset="1" stop-color="#00E5FF"/>
</linearGradient>
<linearGradient id="paint4_linear_37_573" x1="151.928" y1="151.945" x2="1254.96" y2="151.945" gradientUnits="userSpaceOnUse">
<stop stop-color="#CE18C5"/>
<stop offset="0.05" stop-color="#B414B6"/>
<stop offset="0.15" stop-color="#890E9D"/>
<stop offset="0.25" stop-color="#67098A"/>
<stop offset="0.34" stop-color="#4F067B"/>
<stop offset="0.43" stop-color="#400473"/>
<stop offset="0.5" stop-color="#3B0370"/>
<stop offset="0.57" stop-color="#3A0772"/>
<stop offset="0.63" stop-color="#37137A"/>
<stop offset="0.7" stop-color="#322787"/>
<stop offset="0.77" stop-color="#2A4298"/>
<stop offset="0.83" stop-color="#2166AF"/>
<stop offset="0.9" stop-color="#1692CB"/>
<stop offset="0.96" stop-color="#08C5EB"/>
<stop offset="1" stop-color="#00E5FF"/>
</linearGradient>
<linearGradient id="paint5_linear_37_573" x1="143.964" y1="151.945" x2="1247" y2="151.945" gradientUnits="userSpaceOnUse">
<stop stop-color="#CE18C5"/>
<stop offset="0.05" stop-color="#B414B6"/>
<stop offset="0.15" stop-color="#890E9D"/>
<stop offset="0.25" stop-color="#67098A"/>
<stop offset="0.34" stop-color="#4F067B"/>
<stop offset="0.43" stop-color="#400473"/>
<stop offset="0.5" stop-color="#3B0370"/>
<stop offset="0.57" stop-color="#3A0772"/>
<stop offset="0.63" stop-color="#37137A"/>
<stop offset="0.7" stop-color="#322787"/>
<stop offset="0.77" stop-color="#2A4298"/>
<stop offset="0.83" stop-color="#2166AF"/>
<stop offset="0.9" stop-color="#1692CB"/>
<stop offset="0.96" stop-color="#08C5EB"/>
<stop offset="1" stop-color="#00E5FF"/>
</linearGradient>
<linearGradient id="paint6_linear_37_573" x1="191.712" y1="367.222" x2="1287.07" y2="367.222" gradientUnits="userSpaceOnUse">
<stop stop-color="#CE18C5"/>
<stop offset="0.05" stop-color="#B414B6"/>
<stop offset="0.15" stop-color="#890E9D"/>
<stop offset="0.25" stop-color="#67098A"/>
<stop offset="0.34" stop-color="#4F067B"/>
<stop offset="0.43" stop-color="#400473"/>
<stop offset="0.5" stop-color="#3B0370"/>
<stop offset="0.57" stop-color="#3A0772"/>
<stop offset="0.63" stop-color="#37137A"/>
<stop offset="0.7" stop-color="#322787"/>
<stop offset="0.77" stop-color="#2A4298"/>
<stop offset="0.83" stop-color="#2166AF"/>
<stop offset="0.9" stop-color="#1692CB"/>
<stop offset="0.96" stop-color="#08C5EB"/>
<stop offset="1" stop-color="#00E5FF"/>
</linearGradient>
<linearGradient id="paint7_linear_37_573" x1="199.621" y1="367.222" x2="1292.42" y2="367.222" gradientUnits="userSpaceOnUse">
<stop stop-color="#CE18C5"/>
<stop offset="0.05" stop-color="#B414B6"/>
<stop offset="0.15" stop-color="#890E9D"/>
<stop offset="0.25" stop-color="#67098A"/>
<stop offset="0.34" stop-color="#4F067B"/>
<stop offset="0.43" stop-color="#400473"/>
<stop offset="0.5" stop-color="#3B0370"/>
<stop offset="0.57" stop-color="#3A0772"/>
<stop offset="0.63" stop-color="#37137A"/>
<stop offset="0.7" stop-color="#322787"/>
<stop offset="0.77" stop-color="#2A4298"/>
<stop offset="0.83" stop-color="#2166AF"/>
<stop offset="0.9" stop-color="#1692CB"/>
<stop offset="0.96" stop-color="#08C5EB"/>
<stop offset="1" stop-color="#00E5FF"/>
</linearGradient>
<linearGradient id="paint8_linear_37_573" x1="207.511" y1="367.222" x2="1302.86" y2="367.222" gradientUnits="userSpaceOnUse">
<stop stop-color="#CE18C5"/>
<stop offset="0.05" stop-color="#B414B6"/>
<stop offset="0.15" stop-color="#890E9D"/>
<stop offset="0.25" stop-color="#67098A"/>
<stop offset="0.34" stop-color="#4F067B"/>
<stop offset="0.43" stop-color="#400473"/>
<stop offset="0.5" stop-color="#3B0370"/>
<stop offset="0.57" stop-color="#3A0772"/>
<stop offset="0.63" stop-color="#37137A"/>
<stop offset="0.7" stop-color="#322787"/>
<stop offset="0.77" stop-color="#2A4298"/>
<stop offset="0.83" stop-color="#2166AF"/>
<stop offset="0.9" stop-color="#1692CB"/>
<stop offset="0.96" stop-color="#08C5EB"/>
<stop offset="1" stop-color="#00E5FF"/>
</linearGradient>
<linearGradient id="paint9_linear_37_573" x1="215.42" y1="367.222" x2="1310.78" y2="367.222" gradientUnits="userSpaceOnUse">
<stop stop-color="#CE18C5"/>
<stop offset="0.05" stop-color="#B414B6"/>
<stop offset="0.15" stop-color="#890E9D"/>
<stop offset="0.25" stop-color="#67098A"/>
<stop offset="0.34" stop-color="#4F067B"/>
<stop offset="0.43" stop-color="#400473"/>
<stop offset="0.5" stop-color="#3B0370"/>
<stop offset="0.57" stop-color="#3A0772"/>
<stop offset="0.63" stop-color="#37137A"/>
<stop offset="0.7" stop-color="#322787"/>
<stop offset="0.77" stop-color="#2A4298"/>
<stop offset="0.83" stop-color="#2166AF"/>
<stop offset="0.9" stop-color="#1692CB"/>
<stop offset="0.96" stop-color="#08C5EB"/>
<stop offset="1" stop-color="#00E5FF"/>
</linearGradient>
<linearGradient id="paint10_linear_37_573" x1="223.328" y1="367.222" x2="1318.68" y2="367.222" gradientUnits="userSpaceOnUse">
<stop stop-color="#CE18C5"/>
<stop offset="0.05" stop-color="#B414B6"/>
<stop offset="0.15" stop-color="#890E9D"/>
<stop offset="0.25" stop-color="#67098A"/>
<stop offset="0.34" stop-color="#4F067B"/>
<stop offset="0.43" stop-color="#400473"/>
<stop offset="0.5" stop-color="#3B0370"/>
<stop offset="0.57" stop-color="#3A0772"/>
<stop offset="0.63" stop-color="#37137A"/>
<stop offset="0.7" stop-color="#322787"/>
<stop offset="0.77" stop-color="#2A4298"/>
<stop offset="0.83" stop-color="#2166AF"/>
<stop offset="0.9" stop-color="#1692CB"/>
<stop offset="0.96" stop-color="#08C5EB"/>
<stop offset="1" stop-color="#00E5FF"/>
</linearGradient>
<linearGradient id="paint11_linear_37_573" x1="0" y1="3169.25" x2="35317.5" y2="3169.25" gradientUnits="userSpaceOnUse">
<stop stop-color="#CE18C5"/>
<stop offset="0.05" stop-color="#B414B6"/>
<stop offset="0.15" stop-color="#890E9D"/>
<stop offset="0.25" stop-color="#67098A"/>
<stop offset="0.34" stop-color="#4F067B"/>
<stop offset="0.43" stop-color="#400473"/>
<stop offset="0.5" stop-color="#3B0370"/>
<stop offset="0.57" stop-color="#3A0772"/>
<stop offset="0.63" stop-color="#37137A"/>
<stop offset="0.7" stop-color="#322787"/>
<stop offset="0.77" stop-color="#2A4298"/>
<stop offset="0.83" stop-color="#2166AF"/>
<stop offset="0.9" stop-color="#1692CB"/>
<stop offset="0.96" stop-color="#08C5EB"/>
<stop offset="1" stop-color="#00E5FF"/>
</linearGradient>
</defs>
</svg>
