<svg width="1528" height="870" viewBox="0 0 1528 870" fill="none" xmlns="http://www.w3.org/2000/svg">
<path d="M1524.78 75.6252V5.24609H1165.63L1150.99 19.8933H731.955L717.308 5.24609H394.88L380.234 19.8933H202.504L187.858 5.24609H25.5532V33.5536L40.1476 48.1488V467.255L25.5532 481.85V605.832L40.1476 620.427V758.796L25.5532 773.443V866.832H405.683L420.33 852.185H839.361L854.008 866.832H1067.89L1082.53 852.185H1235.28L1249.93 866.832H1524.78V733.813L1510.13 719.166V428.404L1524.78 413.808V257.728L1510.13 243.081V90.2724L1524.78 75.6252Z" fill="url(#paint0_linear_37_484)"/>
<path d="M1517.46 511.508L1528 522V628.789L1517.46 618.298V511.508Z" fill="url(#paint1_linear_37_484)"/>
<path d="M1517.46 628.789L1528 639.281V651.175L1517.46 640.631V628.789Z" fill="url(#paint2_linear_37_484)"/>
<path d="M1517.46 651.176L1528 661.668V673.562L1517.46 663.018V651.176Z" fill="url(#paint3_linear_37_484)"/>
<path d="M1517.46 673.562L1528 684.053V695.948L1517.46 685.404V673.562Z" fill="url(#paint4_linear_37_484)"/>
<path d="M1517.46 695.948L1528 706.44V718.334L1517.46 707.791V695.948Z" fill="url(#paint5_linear_37_484)"/>
<path d="M1077.65 870L1088.19 859.508H1100.04L1089.54 870H1077.65Z" fill="url(#paint6_linear_37_484)"/>
<path d="M1100.04 870L1110.53 859.508H1122.42L1111.93 870H1100.04Z" fill="url(#paint7_linear_37_484)"/>
<path d="M1122.42 870L1132.91 859.508H1144.81L1134.31 870H1122.42Z" fill="url(#paint8_linear_37_484)"/>
<path d="M1144.81 870L1155.3 859.508H1167.19L1156.7 870H1144.81Z" fill="url(#paint9_linear_37_484)"/>
<path d="M1167.19 870L1177.68 859.508H1189.58L1179.03 870H1167.19Z" fill="url(#paint10_linear_37_484)"/>
<path d="M416.123 870L426.614 859.508H438.508L427.965 870H416.123Z" fill="url(#paint11_linear_37_484)"/>
<path d="M438.508 870L448.999 859.508H460.893L450.35 870H438.508Z" fill="url(#paint12_linear_37_484)"/>
<path d="M460.893 870L471.384 859.508H483.278L472.735 870H460.893Z" fill="url(#paint13_linear_37_484)"/>
<path d="M483.278 870L493.769 859.508H505.611L495.12 870H483.278Z" fill="url(#paint14_linear_37_484)"/>
<path d="M505.611 870L516.154 859.508H567.78L557.289 870H505.611Z" fill="url(#paint15_linear_37_484)"/>
<path d="M32.4608 360.206L21.9175 370.75V382.592L32.4608 372.1V360.206Z" fill="url(#paint16_linear_37_484)"/>
<path d="M32.4608 382.592L21.9175 393.136V404.979L32.4608 394.487V382.592Z" fill="url(#paint17_linear_37_484)"/>
<path d="M32.4608 404.979L21.9175 415.522V427.365L32.4608 416.873V404.979Z" fill="url(#paint18_linear_37_484)"/>
<path d="M32.4608 427.365L21.9175 437.857V449.751L32.4608 439.259V427.365Z" fill="url(#paint19_linear_37_484)"/>
<path d="M32.4608 449.751L21.9175 460.243V472.137L32.4608 461.645V449.751Z" fill="url(#paint20_linear_37_484)"/>
<path d="M32.4608 161.119L21.9175 171.663V360.206L32.4608 349.714V161.119Z" fill="url(#paint21_linear_37_484)"/>
<path d="M1144.39 0L1133.9 10.4919H1122.06L1132.55 0H1144.39Z" fill="url(#paint22_linear_37_484)"/>
<path d="M1122.06 0L1111.51 10.4919H1099.67L1110.16 0H1122.06Z" fill="url(#paint23_linear_37_484)"/>
<path d="M1099.67 0L1089.13 10.4919H1077.29L1087.78 0H1099.67Z" fill="url(#paint24_linear_37_484)"/>
<path d="M1077.29 0L1066.74 10.4919H1054.9L1065.39 0H1077.29Z" fill="url(#paint25_linear_37_484)"/>
<path d="M1054.9 0L1044.41 10.4919H1032.52L1043.01 0H1054.9Z" fill="url(#paint26_linear_37_484)"/>
<path d="M812.613 864.754C812.613 864.065 812.887 863.405 813.374 862.918C813.861 862.431 814.522 862.157 815.21 862.157C815.899 862.157 816.559 862.431 817.046 862.918C817.533 863.405 817.807 864.065 817.807 864.754C817.794 865.438 817.516 866.091 817.032 866.575C816.548 867.06 815.895 867.338 815.21 867.351C814.522 867.351 813.861 867.077 813.374 866.59C812.887 866.103 812.613 865.443 812.613 864.754ZM797.032 864.754C797.032 864.065 797.306 863.405 797.793 862.918C798.28 862.431 798.94 862.157 799.629 862.157C800.318 862.157 800.978 862.431 801.465 862.918C801.952 863.405 802.226 864.065 802.226 864.754C802.226 865.443 801.952 866.103 801.465 866.59C800.978 867.077 800.318 867.351 799.629 867.351C798.935 867.351 798.269 867.079 797.774 866.593C797.279 866.108 796.994 865.447 796.98 864.754H797.032ZM781.451 864.754C781.451 864.408 781.52 864.066 781.653 863.748C781.787 863.429 781.983 863.141 782.23 862.899C782.476 862.657 782.769 862.467 783.09 862.339C783.411 862.212 783.754 862.15 784.1 862.157C784.788 862.157 785.449 862.431 785.936 862.918C786.423 863.405 786.696 864.065 786.696 864.754C786.683 865.438 786.405 866.091 785.921 866.575C785.437 867.06 784.784 867.338 784.1 867.351C783.752 867.358 783.406 867.296 783.082 867.169C782.758 867.042 782.462 866.853 782.211 866.612C781.96 866.371 781.76 866.083 781.62 865.764C781.481 865.445 781.406 865.102 781.399 864.754H781.451ZM765.87 864.754C765.87 864.065 766.143 863.405 766.63 862.918C767.117 862.431 767.778 862.157 768.467 862.157C768.805 862.157 769.14 862.224 769.453 862.356C769.765 862.487 770.048 862.679 770.285 862.92C770.522 863.162 770.708 863.449 770.833 863.764C770.958 864.079 771.018 864.415 771.011 864.754C771.012 865.434 770.745 866.087 770.269 866.572C769.794 867.058 769.146 867.337 768.467 867.351C767.778 867.351 767.117 867.077 766.63 866.59C766.143 866.103 765.87 865.443 765.87 864.754ZM750.288 864.754C750.288 864.065 750.562 863.405 751.049 862.918C751.536 862.431 752.197 862.157 752.885 862.157C753.574 862.157 754.235 862.431 754.722 862.918C755.209 863.405 755.482 864.065 755.482 864.754C755.482 865.443 755.209 866.103 754.722 866.59C754.235 867.077 753.574 867.351 752.885 867.351C752.192 867.351 751.526 867.079 751.03 866.593C750.535 866.108 750.25 865.447 750.236 864.754H750.288ZM734.707 864.754C734.707 864.065 734.981 863.405 735.468 862.918C735.955 862.431 736.615 862.157 737.304 862.157C737.993 862.157 738.653 862.431 739.14 862.918C739.627 863.405 739.901 864.065 739.901 864.754C739.888 865.438 739.61 866.091 739.126 866.575C738.641 867.06 737.989 867.338 737.304 867.351C736.615 867.351 735.955 867.077 735.468 866.59C734.981 866.103 734.707 865.443 734.707 864.754ZM719.126 864.754C719.126 864.065 719.399 863.405 719.886 862.918C720.373 862.431 721.034 862.157 721.723 862.157C722.412 862.157 723.072 862.431 723.559 862.918C724.046 863.405 724.32 864.065 724.32 864.754C724.32 865.443 724.046 866.103 723.559 866.59C723.072 867.077 722.412 867.351 721.723 867.351C721.029 867.351 720.363 867.079 719.868 866.593C719.373 866.108 719.088 865.447 719.074 864.754H719.126ZM703.545 864.754C703.545 864.408 703.613 864.066 703.747 863.748C703.881 863.429 704.077 863.141 704.324 862.899C704.57 862.657 704.863 862.467 705.184 862.339C705.505 862.212 705.848 862.15 706.193 862.157C706.882 862.157 707.543 862.431 708.03 862.918C708.517 863.405 708.79 864.065 708.79 864.754C708.777 865.438 708.499 866.091 708.015 866.575C707.531 867.06 706.878 867.338 706.193 867.351C705.846 867.358 705.5 867.296 705.176 867.169C704.852 867.042 704.556 866.853 704.305 866.612C704.054 866.371 703.854 866.083 703.714 865.764C703.575 865.445 703.499 865.102 703.493 864.754H703.545ZM687.963 864.754C687.963 864.065 688.237 863.405 688.724 862.918C689.211 862.431 689.872 862.157 690.56 862.157C690.899 862.157 691.234 862.224 691.546 862.356C691.859 862.487 692.142 862.679 692.379 862.92C692.616 863.162 692.802 863.449 692.927 863.764C693.051 864.079 693.112 864.415 693.105 864.754C693.105 865.434 692.839 866.087 692.363 866.572C691.887 867.058 691.24 867.337 690.56 867.351C689.872 867.351 689.211 867.077 688.724 866.59C688.237 866.103 687.963 865.443 687.963 864.754ZM672.382 864.754C672.382 864.065 672.656 863.405 673.143 862.918C673.63 862.431 674.29 862.157 674.979 862.157C675.668 862.157 676.328 862.431 676.815 862.918C677.302 863.405 677.576 864.065 677.576 864.754C677.576 865.443 677.302 866.103 676.815 866.59C676.328 867.077 675.668 867.351 674.979 867.351C674.286 867.351 673.619 867.079 673.124 866.593C672.629 866.108 672.344 865.447 672.33 864.754H672.382ZM656.801 864.754C656.801 864.065 657.074 863.405 657.562 862.918C658.049 862.431 658.709 862.157 659.398 862.157C660.087 862.157 660.747 862.431 661.234 862.918C661.721 863.405 661.995 864.065 661.995 864.754C661.981 865.438 661.704 866.091 661.219 866.575C660.735 867.06 660.082 867.338 659.398 867.351C658.709 867.351 658.049 867.077 657.562 866.59C657.074 866.103 656.801 865.443 656.801 864.754ZM641.22 864.754C641.22 864.065 641.493 863.405 641.98 862.918C642.467 862.431 643.128 862.157 643.817 862.157C644.505 862.157 645.166 862.431 645.653 862.918C646.14 863.405 646.414 864.065 646.414 864.754C646.414 865.443 646.14 866.103 645.653 866.59C645.166 867.077 644.505 867.351 643.817 867.351C643.123 867.351 642.457 867.079 641.962 866.593C641.466 866.108 641.181 865.447 641.168 864.754H641.22ZM625.639 864.754C625.638 864.408 625.707 864.066 625.841 863.748C625.975 863.429 626.171 863.141 626.417 862.899C626.664 862.657 626.957 862.467 627.278 862.339C627.599 862.212 627.942 862.15 628.287 862.157C628.976 862.157 629.636 862.431 630.123 862.918C630.61 863.405 630.884 864.065 630.884 864.754C630.871 865.438 630.593 866.091 630.109 866.575C629.625 867.06 628.972 867.338 628.287 867.351C627.939 867.358 627.594 867.296 627.27 867.169C626.946 867.042 626.65 866.853 626.399 866.612C626.148 866.371 625.947 866.083 625.808 865.764C625.669 865.445 625.593 865.102 625.587 864.754H625.639ZM610.057 864.754C610.057 864.065 610.331 863.405 610.818 862.918C611.305 862.431 611.965 862.157 612.654 862.157C612.993 862.157 613.328 862.224 613.64 862.356C613.952 862.487 614.235 862.679 614.472 862.92C614.709 863.162 614.896 863.449 615.02 863.764C615.145 864.079 615.206 864.415 615.199 864.754C615.199 865.434 614.933 866.087 614.457 866.572C613.981 867.058 613.334 867.337 612.654 867.351C611.965 867.351 611.305 867.077 610.818 866.59C610.331 866.103 610.057 865.443 610.057 864.754ZM594.476 864.754C594.476 864.065 594.75 863.405 595.237 862.918C595.724 862.431 596.384 862.157 597.073 862.157C597.412 862.157 597.747 862.224 598.059 862.356C598.371 862.487 598.654 862.679 598.891 862.92C599.128 863.162 599.314 863.449 599.439 863.764C599.564 864.079 599.625 864.415 599.618 864.754C599.618 865.434 599.352 866.087 598.876 866.572C598.4 867.058 597.753 867.337 597.073 867.351C596.384 867.351 595.724 867.077 595.237 866.59C594.75 866.103 594.476 865.443 594.476 864.754Z" fill="url(#paint27_linear_37_484)"/>
<path d="M961.934 5.50574C961.934 4.81697 962.207 4.15644 962.694 3.66941C963.181 3.18237 963.842 2.90872 964.531 2.90872C965.219 2.90872 965.88 3.18237 966.367 3.66941C966.854 4.15644 967.127 4.81697 967.127 5.50574C967.127 6.19451 966.854 6.85503 966.367 7.34207C965.88 7.8291 965.219 8.10275 964.531 8.10275C963.842 8.10275 963.181 7.8291 962.694 7.34207C962.207 6.85503 961.934 6.19451 961.934 5.50574ZM946.352 5.50574C946.352 4.81697 946.626 4.15644 947.113 3.66941C947.6 3.18237 948.261 2.90872 948.949 2.90872C949.638 2.90872 950.299 3.18237 950.786 3.66941C951.273 4.15644 951.546 4.81697 951.546 5.50574C951.546 6.19451 951.273 6.85503 950.786 7.34207C950.299 7.8291 949.638 8.10275 948.949 8.10275C948.261 8.10275 947.6 7.8291 947.113 7.34207C946.626 6.85503 946.352 6.19451 946.352 5.50574ZM930.771 5.50574C930.771 4.81697 931.045 4.15644 931.532 3.66941C932.019 3.18237 932.679 2.90872 933.368 2.90872C934.057 2.90872 934.717 3.18237 935.204 3.66941C935.691 4.15644 935.965 4.81697 935.965 5.50574C935.965 6.19451 935.691 6.85503 935.204 7.34207C934.717 7.8291 934.057 8.10275 933.368 8.10275C932.679 8.10275 932.019 7.8291 931.532 7.34207C931.045 6.85503 930.771 6.19451 930.771 5.50574ZM915.19 5.50574C915.19 4.81697 915.463 4.15644 915.95 3.66941C916.437 3.18237 917.098 2.90872 917.787 2.90872C918.476 2.90872 919.136 3.18237 919.623 3.66941C920.11 4.15644 920.384 4.81697 920.384 5.50574C920.384 6.19451 920.11 6.85503 919.623 7.34207C919.136 7.8291 918.476 8.10275 917.787 8.10275C917.098 8.10275 916.437 7.8291 915.95 7.34207C915.463 6.85503 915.19 6.19451 915.19 5.50574ZM899.609 5.50574C899.609 4.81697 899.882 4.15644 900.369 3.66941C900.856 3.18237 901.517 2.90872 902.206 2.90872C902.894 2.90872 903.555 3.18237 904.042 3.66941C904.529 4.15644 904.803 4.81697 904.803 5.50574C904.803 6.19451 904.529 6.85503 904.042 7.34207C903.555 7.8291 902.894 8.10275 902.206 8.10275C901.517 8.10275 900.856 7.8291 900.369 7.34207C899.882 6.85503 899.609 6.19451 899.609 5.50574ZM884.028 5.50574C884.028 4.81697 884.301 4.15644 884.788 3.66941C885.275 3.18237 885.936 2.90872 886.624 2.90872C887.313 2.90872 887.974 3.18237 888.461 3.66941C888.948 4.15644 889.221 4.81697 889.221 5.50574C889.221 6.19451 888.948 6.85503 888.461 7.34207C887.974 7.8291 887.313 8.10275 886.624 8.10275C885.936 8.10275 885.275 7.8291 884.788 7.34207C884.301 6.85503 884.028 6.19451 884.028 5.50574ZM868.446 5.50574C868.446 4.81697 868.72 4.15644 869.207 3.66941C869.694 3.18237 870.354 2.90872 871.043 2.90872C871.382 2.90865 871.717 2.9762 872.029 3.10733C872.341 3.23847 872.624 3.43056 872.861 3.67242C873.098 3.91428 873.285 4.20104 873.409 4.51585C873.534 4.83065 873.595 5.16717 873.588 5.50574C873.595 5.84431 873.534 6.18082 873.409 6.49563C873.285 6.81043 873.098 7.09719 872.861 7.33905C872.624 7.58092 872.341 7.773 872.029 7.90414C871.717 8.03528 871.382 8.10282 871.043 8.10275C870.354 8.10275 869.694 7.8291 869.207 7.34207C868.72 6.85503 868.446 6.19451 868.446 5.50574ZM852.865 5.50574C852.865 4.81697 853.139 4.15644 853.626 3.66941C854.113 3.18237 854.773 2.90872 855.462 2.90872C856.151 2.90872 856.811 3.18237 857.298 3.66941C857.785 4.15644 858.059 4.81697 858.059 5.50574C858.059 6.19451 857.785 6.85503 857.298 7.34207C856.811 7.8291 856.151 8.10275 855.462 8.10275C854.773 8.10275 854.113 7.8291 853.626 7.34207C853.139 6.85503 852.865 6.19451 852.865 5.50574ZM837.284 5.50574C837.284 4.81697 837.557 4.15644 838.044 3.66941C838.531 3.18237 839.192 2.90872 839.881 2.90872C840.569 2.90872 841.23 3.18237 841.717 3.66941C842.204 4.15644 842.478 4.81697 842.478 5.50574C842.478 6.19451 842.204 6.85503 841.717 7.34207C841.23 7.8291 840.569 8.10275 839.881 8.10275C839.192 8.10275 838.531 7.8291 838.044 7.34207C837.557 6.85503 837.284 6.19451 837.284 5.50574ZM821.703 5.50574C821.703 4.81697 821.976 4.15644 822.463 3.66941C822.95 3.18237 823.611 2.90872 824.299 2.90872C824.988 2.90872 825.649 3.18237 826.136 3.66941C826.623 4.15644 826.896 4.81697 826.896 5.50574C826.896 6.19451 826.623 6.85503 826.136 7.34207C825.649 7.8291 824.988 8.10275 824.299 8.10275C823.611 8.10275 822.95 7.8291 822.463 7.34207C821.976 6.85503 821.703 6.19451 821.703 5.50574ZM806.121 5.50574C806.121 4.81697 806.395 4.15644 806.882 3.66941C807.369 3.18237 808.029 2.90872 808.718 2.90872C809.407 2.90872 810.067 3.18237 810.554 3.66941C811.041 4.15644 811.315 4.81697 811.315 5.50574C811.315 6.19451 811.041 6.85503 810.554 7.34207C810.067 7.8291 809.407 8.10275 808.718 8.10275C808.029 8.10275 807.369 7.8291 806.882 7.34207C806.395 6.85503 806.121 6.19451 806.121 5.50574ZM790.54 5.50574C790.54 4.81697 790.814 4.15644 791.301 3.66941C791.788 3.18237 792.448 2.90872 793.137 2.90872C793.826 2.90872 794.486 3.18237 794.973 3.66941C795.46 4.15644 795.734 4.81697 795.734 5.50574C795.734 6.19451 795.46 6.85503 794.973 7.34207C794.486 7.8291 793.826 8.10275 793.137 8.10275C792.448 8.10275 791.788 7.8291 791.301 7.34207C790.814 6.85503 790.54 6.19451 790.54 5.50574ZM774.959 5.50574C774.959 4.81697 775.232 4.15644 775.719 3.66941C776.206 3.18237 776.867 2.90872 777.556 2.90872C777.894 2.90865 778.23 2.9762 778.542 3.10733C778.854 3.23847 779.137 3.43056 779.374 3.67242C779.611 3.91428 779.797 4.20104 779.922 4.51585C780.047 4.83065 780.108 5.16717 780.101 5.50574C780.108 5.84431 780.047 6.18082 779.922 6.49563C779.797 6.81043 779.611 7.09719 779.374 7.33905C779.137 7.58092 778.854 7.773 778.542 7.90414C778.23 8.03528 777.894 8.10282 777.556 8.10275C776.867 8.10275 776.206 7.8291 775.719 7.34207C775.232 6.85503 774.959 6.19451 774.959 5.50574ZM759.378 5.50574C759.371 5.16717 759.431 4.83065 759.556 4.51585C759.681 4.20104 759.867 3.91428 760.104 3.67242C760.341 3.43056 760.624 3.23847 760.936 3.10733C761.249 2.9762 761.584 2.90865 761.923 2.90872C762.268 2.90181 762.611 2.96391 762.932 3.09133C763.253 3.21874 763.546 3.40886 763.792 3.6507C764.039 3.89255 764.235 4.18116 764.369 4.49968C764.503 4.8182 764.571 5.16028 764.571 5.50574C764.571 5.8512 764.503 6.19328 764.369 6.5118C764.235 6.83031 764.039 7.11892 763.792 7.36077C763.546 7.60262 763.253 7.79273 762.932 7.92015C762.611 8.04756 762.268 8.10966 761.923 8.10275C761.584 8.10282 761.249 8.03528 760.936 7.90414C760.624 7.773 760.341 7.58092 760.104 7.33905C759.867 7.09719 759.681 6.81043 759.556 6.49563C759.431 6.18082 759.371 5.84431 759.378 5.50574ZM743.796 5.50574C743.796 4.81697 744.07 4.15644 744.557 3.66941C745.044 3.18237 745.705 2.90872 746.393 2.90872C747.082 2.90872 747.742 3.18237 748.229 3.66941C748.716 4.15644 748.99 4.81697 748.99 5.50574C748.99 6.19451 748.716 6.85503 748.229 7.34207C747.742 7.8291 747.082 8.10275 746.393 8.10275C745.705 8.10275 745.044 7.8291 744.557 7.34207C744.07 6.85503 743.796 6.19451 743.796 5.50574Z" fill="url(#paint28_linear_37_484)"/>
<path d="M1518.34 218.149C1518.34 217.46 1518.61 216.8 1519.1 216.313C1519.59 215.826 1520.25 215.552 1520.94 215.552C1521.63 215.552 1522.29 215.826 1522.77 216.313C1523.26 216.8 1523.53 217.46 1523.53 218.149C1523.53 218.838 1523.26 219.498 1522.77 219.985C1522.29 220.473 1521.63 220.746 1520.94 220.746C1520.25 220.733 1519.6 220.455 1519.11 219.971C1518.63 219.487 1518.35 218.834 1518.34 218.149ZM1518.34 202.567C1518.34 201.878 1518.61 201.218 1519.1 200.731C1519.59 200.244 1520.25 199.97 1520.94 199.97C1521.63 199.97 1522.29 200.244 1522.77 200.731C1523.26 201.218 1523.53 201.878 1523.53 202.567C1523.53 203.256 1523.26 203.916 1522.77 204.403C1522.29 204.89 1521.63 205.164 1520.94 205.164C1520.25 205.151 1519.6 204.873 1519.11 204.389C1518.63 203.904 1518.35 203.252 1518.34 202.567ZM1518.34 186.985C1518.34 186.296 1518.61 185.636 1519.1 185.149C1519.59 184.662 1520.25 184.388 1520.94 184.388C1521.63 184.388 1522.29 184.662 1522.77 185.149C1523.26 185.636 1523.53 186.296 1523.53 186.985C1523.53 187.674 1523.26 188.334 1522.77 188.821C1522.29 189.308 1521.63 189.582 1520.94 189.582C1520.25 189.569 1519.6 189.291 1519.11 188.807C1518.63 188.322 1518.35 187.67 1518.34 186.985ZM1518.34 171.403C1518.34 170.714 1518.61 170.054 1519.1 169.567C1519.59 169.08 1520.25 168.806 1520.94 168.806C1521.63 168.806 1522.29 169.08 1522.77 169.567C1523.26 170.054 1523.53 170.714 1523.53 171.403C1523.53 172.092 1523.26 172.752 1522.77 173.239C1522.29 173.726 1521.63 174 1520.94 174C1520.25 173.987 1519.6 173.709 1519.11 173.224C1518.63 172.74 1518.35 172.088 1518.34 171.403ZM1518.34 155.821C1518.34 155.132 1518.61 154.472 1519.1 153.984C1519.59 153.497 1520.25 153.224 1520.94 153.224C1521.63 153.224 1522.29 153.497 1522.77 153.984C1523.26 154.472 1523.53 155.132 1523.53 155.821C1523.53 156.51 1523.26 157.17 1522.77 157.657C1522.29 158.144 1521.63 158.418 1520.94 158.418C1520.25 158.405 1519.6 158.127 1519.11 157.642C1518.63 157.158 1518.35 156.505 1518.34 155.821ZM1518.34 140.239C1518.34 139.55 1518.61 138.889 1519.1 138.402C1519.59 137.915 1520.25 137.642 1520.94 137.642C1521.63 137.642 1522.29 137.915 1522.77 138.402C1523.26 138.889 1523.53 139.55 1523.53 140.239C1523.53 140.927 1523.26 141.588 1522.77 142.075C1522.29 142.562 1521.63 142.836 1520.94 142.836C1520.25 142.822 1519.6 142.544 1519.11 142.06C1518.63 141.576 1518.35 140.923 1518.34 140.239ZM1518.34 124.657C1518.34 123.968 1518.61 123.307 1519.1 122.82C1519.59 122.333 1520.25 122.06 1520.94 122.06C1521.63 122.06 1522.29 122.333 1522.77 122.82C1523.26 123.307 1523.53 123.968 1523.53 124.657C1523.53 125.345 1523.26 126.006 1522.77 126.493C1522.29 126.98 1521.63 127.254 1520.94 127.254C1520.25 127.24 1519.6 126.962 1519.11 126.478C1518.63 125.994 1518.35 125.341 1518.34 124.657ZM1518.34 109.075C1518.34 108.386 1518.61 107.725 1519.1 107.238C1519.59 106.751 1520.25 106.478 1520.94 106.478C1521.63 106.478 1522.29 106.751 1522.77 107.238C1523.26 107.725 1523.53 108.386 1523.53 109.075C1523.53 109.763 1523.26 110.424 1522.77 110.911C1522.29 111.398 1521.63 111.672 1520.94 111.672C1520.25 111.658 1519.6 111.38 1519.11 110.896C1518.63 110.412 1518.35 109.759 1518.34 109.075Z" fill="url(#paint29_linear_37_484)"/>
<path d="M1504.06 26.022H46.3281V846.055H1504.06V26.022Z" fill="#130229"/>
<g opacity="0.6">
<g style="mix-blend-mode:overlay" opacity="0.6">
<g style="mix-blend-mode:overlay" opacity="0.6">
<path d="M101.434 26.022V846.055" stroke="white" stroke-width="0.24" stroke-miterlimit="10"/>
</g>
<g style="mix-blend-mode:overlay" opacity="0.6">
<path d="M162.668 26.022V846.055" stroke="white" stroke-width="0.24" stroke-miterlimit="10"/>
</g>
<g style="mix-blend-mode:overlay" opacity="0.6">
<path d="M223.902 26.022V846.055" stroke="white" stroke-width="0.24" stroke-miterlimit="10"/>
</g>
<g style="mix-blend-mode:overlay" opacity="0.6">
<path d="M285.188 26.022V846.055" stroke="white" stroke-width="0.24" stroke-miterlimit="10"/>
</g>
<g style="mix-blend-mode:overlay" opacity="0.6">
<path d="M346.423 26.022V846.055" stroke="white" stroke-width="0.24" stroke-miterlimit="10"/>
</g>
<g style="mix-blend-mode:overlay" opacity="0.6">
<path d="M407.657 26.022V846.055" stroke="white" stroke-width="0.24" stroke-miterlimit="10"/>
</g>
<g style="mix-blend-mode:overlay" opacity="0.6">
<path d="M468.943 26.022V846.055" stroke="white" stroke-width="0.24" stroke-miterlimit="10"/>
</g>
<g style="mix-blend-mode:overlay" opacity="0.6">
<path d="M530.177 26.022V846.055" stroke="white" stroke-width="0.24" stroke-miterlimit="10"/>
</g>
<g style="mix-blend-mode:overlay" opacity="0.6">
<path d="M591.412 26.022V846.055" stroke="white" stroke-width="0.24" stroke-miterlimit="10"/>
</g>
<g style="mix-blend-mode:overlay" opacity="0.6">
<path d="M652.646 26.022V846.055" stroke="white" stroke-width="0.24" stroke-miterlimit="10"/>
</g>
<g style="mix-blend-mode:overlay" opacity="0.6">
<path d="M713.932 26.022V846.055" stroke="white" stroke-width="0.24" stroke-miterlimit="10"/>
</g>
<g style="mix-blend-mode:overlay" opacity="0.6">
<path d="M775.167 26.022V846.055" stroke="white" stroke-width="0.24" stroke-miterlimit="10"/>
</g>
<g style="mix-blend-mode:overlay" opacity="0.6">
<path d="M836.401 26.022V846.055" stroke="white" stroke-width="0.24" stroke-miterlimit="10"/>
</g>
<g style="mix-blend-mode:overlay" opacity="0.6">
<path d="M897.635 26.022V846.055" stroke="white" stroke-width="0.24" stroke-miterlimit="10"/>
</g>
<g style="mix-blend-mode:overlay" opacity="0.6">
<path d="M958.921 26.022V846.055" stroke="white" stroke-width="0.24" stroke-miterlimit="10"/>
</g>
<g style="mix-blend-mode:overlay" opacity="0.6">
<path d="M1020.16 26.022V846.055" stroke="white" stroke-width="0.24" stroke-miterlimit="10"/>
</g>
<g style="mix-blend-mode:overlay" opacity="0.6">
<path d="M1081.39 26.022V846.055" stroke="white" stroke-width="0.24" stroke-miterlimit="10"/>
</g>
<g style="mix-blend-mode:overlay" opacity="0.6">
<path d="M1142.62 26.022V846.055" stroke="white" stroke-width="0.24" stroke-miterlimit="10"/>
</g>
<g style="mix-blend-mode:overlay" opacity="0.6">
<path d="M1203.91 26.022V846.055" stroke="white" stroke-width="0.24" stroke-miterlimit="10"/>
</g>
<g style="mix-blend-mode:overlay" opacity="0.6">
<path d="M1265.14 26.022V846.055" stroke="white" stroke-width="0.24" stroke-miterlimit="10"/>
</g>
<g style="mix-blend-mode:overlay" opacity="0.6">
<path d="M1326.38 26.022V846.055" stroke="white" stroke-width="0.24" stroke-miterlimit="10"/>
</g>
<g style="mix-blend-mode:overlay" opacity="0.6">
<path d="M1387.66 26.022V846.055" stroke="white" stroke-width="0.24" stroke-miterlimit="10"/>
</g>
<g style="mix-blend-mode:overlay" opacity="0.6">
<path d="M1448.9 26.022V846.055" stroke="white" stroke-width="0.24" stroke-miterlimit="10"/>
</g>
</g>
<g style="mix-blend-mode:overlay" opacity="0.6">
<g style="mix-blend-mode:overlay" opacity="0.6">
<path d="M1504 73.8589H46.3281" stroke="white" stroke-width="0.24" stroke-miterlimit="10"/>
</g>
<g style="mix-blend-mode:overlay" opacity="0.6">
<path d="M1504 134.213H46.3281" stroke="white" stroke-width="0.24" stroke-miterlimit="10"/>
</g>
<g style="mix-blend-mode:overlay" opacity="0.6">
<path d="M1504 194.62H46.3281" stroke="white" stroke-width="0.24" stroke-miterlimit="10"/>
</g>
<g style="mix-blend-mode:overlay" opacity="0.6">
<path d="M1504 254.975H46.3281" stroke="white" stroke-width="0.24" stroke-miterlimit="10"/>
</g>
<g style="mix-blend-mode:overlay" opacity="0.6">
<path d="M1504 315.329H46.3281" stroke="white" stroke-width="0.24" stroke-miterlimit="10"/>
</g>
<g style="mix-blend-mode:overlay" opacity="0.6">
<path d="M1504 375.684H46.3281" stroke="white" stroke-width="0.24" stroke-miterlimit="10"/>
</g>
<g style="mix-blend-mode:overlay" opacity="0.6">
<path d="M1504 436.039H46.3281" stroke="white" stroke-width="0.24" stroke-miterlimit="10"/>
</g>
<g style="mix-blend-mode:overlay" opacity="0.6">
<path d="M1504 496.393H46.3281" stroke="white" stroke-width="0.24" stroke-miterlimit="10"/>
</g>
<g style="mix-blend-mode:overlay" opacity="0.6">
<path d="M1504 556.748H46.3281" stroke="white" stroke-width="0.24" stroke-miterlimit="10"/>
</g>
<g style="mix-blend-mode:overlay" opacity="0.6">
<path d="M1504 617.103H46.3281" stroke="white" stroke-width="0.24" stroke-miterlimit="10"/>
</g>
<g style="mix-blend-mode:overlay" opacity="0.6">
<path d="M1504 677.457H46.3281" stroke="white" stroke-width="0.24" stroke-miterlimit="10"/>
</g>
<g style="mix-blend-mode:overlay" opacity="0.6">
<path d="M1504 737.812H46.3281" stroke="white" stroke-width="0.24" stroke-miterlimit="10"/>
</g>
<g style="mix-blend-mode:overlay" opacity="0.6">
<path d="M1504 798.218H46.3281" stroke="white" stroke-width="0.24" stroke-miterlimit="10"/>
</g>
</g>
</g>
<path d="M1016 764.977H534.28L471.696 827.617H378.312L359.875 846.055H453.258H636.13H1097.07L1016 764.977Z" fill="url(#paint30_linear_37_484)"/>
<path d="M1354.32 819.099H1338.01V835.408H1354.32V819.099Z" fill="#00E4FF"/>
<path d="M1383.98 822.111V832.499H1373.59V822.111H1383.98ZM1387.04 819.099H1370.73V835.356H1387.04V819.099Z" fill="#00E4FF"/>
<path d="M1416.75 822.111V832.499H1406.36V822.111H1416.75ZM1419.76 819.099H1403.51V835.356H1419.76V819.099Z" fill="#00E4FF"/>
<path d="M1452.53 819.099H1436.23V835.408H1452.53V819.099Z" fill="#00E4FF"/>
<path d="M1485.31 819.099H1469V835.408H1485.31V819.099Z" fill="#00E4FF"/>
<path d="M81.386 36.7217H65.0776V53.0309H81.386V36.7217Z" fill="#00E4FF"/>
<path d="M111.042 39.7344V50.1224H100.655V39.7344H111.042ZM114.107 36.7219H97.7981V52.9793H114.107V36.6699V36.7219Z" fill="#00E4FF"/>
<path d="M143.815 39.7344V50.1224H133.427V39.7344H143.815ZM146.827 36.7219H130.519V52.9793H146.827V36.6699V36.7219Z" fill="#00E4FF"/>
<path d="M176.535 39.7344V50.1224H166.148V39.7344H176.535ZM179.6 36.7219H163.292V52.9793H179.392V36.6699L179.6 36.7219Z" fill="#00E4FF"/>
<path d="M212.32 36.7217H196.012V53.0309H212.32V36.7217Z" fill="#00E4FF"/>
<path style="mix-blend-mode:screen" d="M775.166 781.078C1010.21 781.078 1200.74 773.869 1200.74 764.977C1200.74 756.084 1010.21 748.875 775.166 748.875C540.127 748.875 349.591 756.084 349.591 764.977C349.591 773.869 540.127 781.078 775.166 781.078Z" fill="url(#paint31_radial_37_484)"/>
<path style="mix-blend-mode:screen" d="M775.166 800.088C924.439 800.088 1045.45 784.368 1045.45 764.977C1045.45 745.585 924.439 729.865 775.166 729.865C625.893 729.865 504.884 745.585 504.884 764.977C504.884 784.368 625.893 800.088 775.166 800.088Z" fill="url(#paint32_radial_37_484)"/>
<path style="mix-blend-mode:screen" d="M27.1632 691.741C12.1533 691.741 0 625.05 0 542.776C0 460.503 12.1533 393.812 27.1632 393.812C42.1731 393.812 54.3784 460.503 54.3784 542.776C54.3784 625.05 42.1731 691.741 27.1632 691.741Z" fill="url(#paint33_radial_37_484)"/>
<defs>
<linearGradient id="paint0_linear_37_484" x1="18.3339" y1="436.039" x2="1527.17" y2="436.039" gradientUnits="userSpaceOnUse">
<stop stop-color="#CE18C5"/>
<stop offset="0.05" stop-color="#B414B6"/>
<stop offset="0.15" stop-color="#890E9D"/>
<stop offset="0.25" stop-color="#67098A"/>
<stop offset="0.34" stop-color="#4F067B"/>
<stop offset="0.43" stop-color="#400473"/>
<stop offset="0.5" stop-color="#3B0370"/>
<stop offset="0.57" stop-color="#3A0772"/>
<stop offset="0.63" stop-color="#37137A"/>
<stop offset="0.7" stop-color="#322787"/>
<stop offset="0.77" stop-color="#2A4298"/>
<stop offset="0.83" stop-color="#2166AF"/>
<stop offset="0.9" stop-color="#1692CB"/>
<stop offset="0.96" stop-color="#08C5EB"/>
<stop offset="1" stop-color="#00E5FF"/>
</linearGradient>
<linearGradient id="paint1_linear_37_484" x1="1554.78" y1="13385.5" x2="4617.62" y2="13385.5" gradientUnits="userSpaceOnUse">
<stop stop-color="#CE18C5"/>
<stop offset="0.05" stop-color="#B414B6"/>
<stop offset="0.15" stop-color="#890E9D"/>
<stop offset="0.25" stop-color="#67098A"/>
<stop offset="0.34" stop-color="#4F067B"/>
<stop offset="0.43" stop-color="#400473"/>
<stop offset="0.5" stop-color="#3B0370"/>
<stop offset="0.57" stop-color="#3A0772"/>
<stop offset="0.63" stop-color="#37137A"/>
<stop offset="0.7" stop-color="#322787"/>
<stop offset="0.77" stop-color="#2A4298"/>
<stop offset="0.83" stop-color="#2166AF"/>
<stop offset="0.9" stop-color="#1692CB"/>
<stop offset="0.96" stop-color="#08C5EB"/>
<stop offset="1" stop-color="#00E5FF"/>
</linearGradient>
<linearGradient id="paint2_linear_37_484" x1="1554.78" y1="3387" x2="4617.62" y2="3387" gradientUnits="userSpaceOnUse">
<stop stop-color="#CE18C5"/>
<stop offset="0.05" stop-color="#B414B6"/>
<stop offset="0.15" stop-color="#890E9D"/>
<stop offset="0.25" stop-color="#67098A"/>
<stop offset="0.34" stop-color="#4F067B"/>
<stop offset="0.43" stop-color="#400473"/>
<stop offset="0.5" stop-color="#3B0370"/>
<stop offset="0.57" stop-color="#3A0772"/>
<stop offset="0.63" stop-color="#37137A"/>
<stop offset="0.7" stop-color="#322787"/>
<stop offset="0.77" stop-color="#2A4298"/>
<stop offset="0.83" stop-color="#2166AF"/>
<stop offset="0.9" stop-color="#1692CB"/>
<stop offset="0.96" stop-color="#08C5EB"/>
<stop offset="1" stop-color="#00E5FF"/>
</linearGradient>
<linearGradient id="paint3_linear_37_484" x1="1554.78" y1="3505.87" x2="4617.62" y2="3505.87" gradientUnits="userSpaceOnUse">
<stop stop-color="#CE18C5"/>
<stop offset="0.05" stop-color="#B414B6"/>
<stop offset="0.15" stop-color="#890E9D"/>
<stop offset="0.25" stop-color="#67098A"/>
<stop offset="0.34" stop-color="#4F067B"/>
<stop offset="0.43" stop-color="#400473"/>
<stop offset="0.5" stop-color="#3B0370"/>
<stop offset="0.57" stop-color="#3A0772"/>
<stop offset="0.63" stop-color="#37137A"/>
<stop offset="0.7" stop-color="#322787"/>
<stop offset="0.77" stop-color="#2A4298"/>
<stop offset="0.83" stop-color="#2166AF"/>
<stop offset="0.9" stop-color="#1692CB"/>
<stop offset="0.96" stop-color="#08C5EB"/>
<stop offset="1" stop-color="#00E5FF"/>
</linearGradient>
<linearGradient id="paint4_linear_37_484" x1="1554.78" y1="3624.75" x2="4617.62" y2="3624.75" gradientUnits="userSpaceOnUse">
<stop stop-color="#CE18C5"/>
<stop offset="0.05" stop-color="#B414B6"/>
<stop offset="0.15" stop-color="#890E9D"/>
<stop offset="0.25" stop-color="#67098A"/>
<stop offset="0.34" stop-color="#4F067B"/>
<stop offset="0.43" stop-color="#400473"/>
<stop offset="0.5" stop-color="#3B0370"/>
<stop offset="0.57" stop-color="#3A0772"/>
<stop offset="0.63" stop-color="#37137A"/>
<stop offset="0.7" stop-color="#322787"/>
<stop offset="0.77" stop-color="#2A4298"/>
<stop offset="0.83" stop-color="#2166AF"/>
<stop offset="0.9" stop-color="#1692CB"/>
<stop offset="0.96" stop-color="#08C5EB"/>
<stop offset="1" stop-color="#00E5FF"/>
</linearGradient>
<linearGradient id="paint5_linear_37_484" x1="1554.78" y1="3743.61" x2="4617.62" y2="3743.61" gradientUnits="userSpaceOnUse">
<stop stop-color="#CE18C5"/>
<stop offset="0.05" stop-color="#B414B6"/>
<stop offset="0.15" stop-color="#890E9D"/>
<stop offset="0.25" stop-color="#67098A"/>
<stop offset="0.34" stop-color="#4F067B"/>
<stop offset="0.43" stop-color="#400473"/>
<stop offset="0.5" stop-color="#3B0370"/>
<stop offset="0.57" stop-color="#3A0772"/>
<stop offset="0.63" stop-color="#37137A"/>
<stop offset="0.7" stop-color="#322787"/>
<stop offset="0.77" stop-color="#2A4298"/>
<stop offset="0.83" stop-color="#2166AF"/>
<stop offset="0.9" stop-color="#1692CB"/>
<stop offset="0.96" stop-color="#08C5EB"/>
<stop offset="1" stop-color="#00E5FF"/>
</linearGradient>
<linearGradient id="paint6_linear_37_484" x1="1156.67" y1="2606.32" x2="7659.77" y2="2606.32" gradientUnits="userSpaceOnUse">
<stop stop-color="#CE18C5"/>
<stop offset="0.05" stop-color="#B414B6"/>
<stop offset="0.15" stop-color="#890E9D"/>
<stop offset="0.25" stop-color="#67098A"/>
<stop offset="0.34" stop-color="#4F067B"/>
<stop offset="0.43" stop-color="#400473"/>
<stop offset="0.5" stop-color="#3B0370"/>
<stop offset="0.57" stop-color="#3A0772"/>
<stop offset="0.63" stop-color="#37137A"/>
<stop offset="0.7" stop-color="#322787"/>
<stop offset="0.77" stop-color="#2A4298"/>
<stop offset="0.83" stop-color="#2166AF"/>
<stop offset="0.9" stop-color="#1692CB"/>
<stop offset="0.96" stop-color="#08C5EB"/>
<stop offset="1" stop-color="#00E5FF"/>
</linearGradient>
<linearGradient id="paint7_linear_37_484" x1="1179.05" y1="2606.32" x2="7682.12" y2="2606.32" gradientUnits="userSpaceOnUse">
<stop stop-color="#CE18C5"/>
<stop offset="0.05" stop-color="#B414B6"/>
<stop offset="0.15" stop-color="#890E9D"/>
<stop offset="0.25" stop-color="#67098A"/>
<stop offset="0.34" stop-color="#4F067B"/>
<stop offset="0.43" stop-color="#400473"/>
<stop offset="0.5" stop-color="#3B0370"/>
<stop offset="0.57" stop-color="#3A0772"/>
<stop offset="0.63" stop-color="#37137A"/>
<stop offset="0.7" stop-color="#322787"/>
<stop offset="0.77" stop-color="#2A4298"/>
<stop offset="0.83" stop-color="#2166AF"/>
<stop offset="0.9" stop-color="#1692CB"/>
<stop offset="0.96" stop-color="#08C5EB"/>
<stop offset="1" stop-color="#00E5FF"/>
</linearGradient>
<linearGradient id="paint8_linear_37_484" x1="1201.44" y1="2606.32" x2="7704.47" y2="2606.32" gradientUnits="userSpaceOnUse">
<stop stop-color="#CE18C5"/>
<stop offset="0.05" stop-color="#B414B6"/>
<stop offset="0.15" stop-color="#890E9D"/>
<stop offset="0.25" stop-color="#67098A"/>
<stop offset="0.34" stop-color="#4F067B"/>
<stop offset="0.43" stop-color="#400473"/>
<stop offset="0.5" stop-color="#3B0370"/>
<stop offset="0.57" stop-color="#3A0772"/>
<stop offset="0.63" stop-color="#37137A"/>
<stop offset="0.7" stop-color="#322787"/>
<stop offset="0.77" stop-color="#2A4298"/>
<stop offset="0.83" stop-color="#2166AF"/>
<stop offset="0.9" stop-color="#1692CB"/>
<stop offset="0.96" stop-color="#08C5EB"/>
<stop offset="1" stop-color="#00E5FF"/>
</linearGradient>
<linearGradient id="paint9_linear_37_484" x1="1223.82" y1="2606.32" x2="7726.93" y2="2606.32" gradientUnits="userSpaceOnUse">
<stop stop-color="#CE18C5"/>
<stop offset="0.05" stop-color="#B414B6"/>
<stop offset="0.15" stop-color="#890E9D"/>
<stop offset="0.25" stop-color="#67098A"/>
<stop offset="0.34" stop-color="#4F067B"/>
<stop offset="0.43" stop-color="#400473"/>
<stop offset="0.5" stop-color="#3B0370"/>
<stop offset="0.57" stop-color="#3A0772"/>
<stop offset="0.63" stop-color="#37137A"/>
<stop offset="0.7" stop-color="#322787"/>
<stop offset="0.77" stop-color="#2A4298"/>
<stop offset="0.83" stop-color="#2166AF"/>
<stop offset="0.9" stop-color="#1692CB"/>
<stop offset="0.96" stop-color="#08C5EB"/>
<stop offset="1" stop-color="#00E5FF"/>
</linearGradient>
<linearGradient id="paint10_linear_37_484" x1="1246.21" y1="2606.32" x2="7749.28" y2="2606.32" gradientUnits="userSpaceOnUse">
<stop stop-color="#CE18C5"/>
<stop offset="0.05" stop-color="#B414B6"/>
<stop offset="0.15" stop-color="#890E9D"/>
<stop offset="0.25" stop-color="#67098A"/>
<stop offset="0.34" stop-color="#4F067B"/>
<stop offset="0.43" stop-color="#400473"/>
<stop offset="0.5" stop-color="#3B0370"/>
<stop offset="0.57" stop-color="#3A0772"/>
<stop offset="0.63" stop-color="#37137A"/>
<stop offset="0.7" stop-color="#322787"/>
<stop offset="0.77" stop-color="#2A4298"/>
<stop offset="0.83" stop-color="#2166AF"/>
<stop offset="0.9" stop-color="#1692CB"/>
<stop offset="0.96" stop-color="#08C5EB"/>
<stop offset="1" stop-color="#00E5FF"/>
</linearGradient>
<linearGradient id="paint11_linear_37_484" x1="495.142" y1="2606.32" x2="6998.22" y2="2606.32" gradientUnits="userSpaceOnUse">
<stop stop-color="#CE18C5"/>
<stop offset="0.05" stop-color="#B414B6"/>
<stop offset="0.15" stop-color="#890E9D"/>
<stop offset="0.25" stop-color="#67098A"/>
<stop offset="0.34" stop-color="#4F067B"/>
<stop offset="0.43" stop-color="#400473"/>
<stop offset="0.5" stop-color="#3B0370"/>
<stop offset="0.57" stop-color="#3A0772"/>
<stop offset="0.63" stop-color="#37137A"/>
<stop offset="0.7" stop-color="#322787"/>
<stop offset="0.77" stop-color="#2A4298"/>
<stop offset="0.83" stop-color="#2166AF"/>
<stop offset="0.9" stop-color="#1692CB"/>
<stop offset="0.96" stop-color="#08C5EB"/>
<stop offset="1" stop-color="#00E5FF"/>
</linearGradient>
<linearGradient id="paint12_linear_37_484" x1="517.527" y1="2606.32" x2="7020.6" y2="2606.32" gradientUnits="userSpaceOnUse">
<stop stop-color="#CE18C5"/>
<stop offset="0.05" stop-color="#B414B6"/>
<stop offset="0.15" stop-color="#890E9D"/>
<stop offset="0.25" stop-color="#67098A"/>
<stop offset="0.34" stop-color="#4F067B"/>
<stop offset="0.43" stop-color="#400473"/>
<stop offset="0.5" stop-color="#3B0370"/>
<stop offset="0.57" stop-color="#3A0772"/>
<stop offset="0.63" stop-color="#37137A"/>
<stop offset="0.7" stop-color="#322787"/>
<stop offset="0.77" stop-color="#2A4298"/>
<stop offset="0.83" stop-color="#2166AF"/>
<stop offset="0.9" stop-color="#1692CB"/>
<stop offset="0.96" stop-color="#08C5EB"/>
<stop offset="1" stop-color="#00E5FF"/>
</linearGradient>
<linearGradient id="paint13_linear_37_484" x1="539.912" y1="2606.32" x2="7043.01" y2="2606.32" gradientUnits="userSpaceOnUse">
<stop stop-color="#CE18C5"/>
<stop offset="0.05" stop-color="#B414B6"/>
<stop offset="0.15" stop-color="#890E9D"/>
<stop offset="0.25" stop-color="#67098A"/>
<stop offset="0.34" stop-color="#4F067B"/>
<stop offset="0.43" stop-color="#400473"/>
<stop offset="0.5" stop-color="#3B0370"/>
<stop offset="0.57" stop-color="#3A0772"/>
<stop offset="0.63" stop-color="#37137A"/>
<stop offset="0.7" stop-color="#322787"/>
<stop offset="0.77" stop-color="#2A4298"/>
<stop offset="0.83" stop-color="#2166AF"/>
<stop offset="0.9" stop-color="#1692CB"/>
<stop offset="0.96" stop-color="#08C5EB"/>
<stop offset="1" stop-color="#00E5FF"/>
</linearGradient>
<linearGradient id="paint14_linear_37_484" x1="562.114" y1="2606.32" x2="7050.09" y2="2606.32" gradientUnits="userSpaceOnUse">
<stop stop-color="#CE18C5"/>
<stop offset="0.05" stop-color="#B414B6"/>
<stop offset="0.15" stop-color="#890E9D"/>
<stop offset="0.25" stop-color="#67098A"/>
<stop offset="0.34" stop-color="#4F067B"/>
<stop offset="0.43" stop-color="#400473"/>
<stop offset="0.5" stop-color="#3B0370"/>
<stop offset="0.57" stop-color="#3A0772"/>
<stop offset="0.63" stop-color="#37137A"/>
<stop offset="0.7" stop-color="#322787"/>
<stop offset="0.77" stop-color="#2A4298"/>
<stop offset="0.83" stop-color="#2166AF"/>
<stop offset="0.9" stop-color="#1692CB"/>
<stop offset="0.96" stop-color="#08C5EB"/>
<stop offset="1" stop-color="#00E5FF"/>
</linearGradient>
<linearGradient id="paint15_linear_37_484" x1="725.068" y1="2606.32" x2="18785.8" y2="2606.32" gradientUnits="userSpaceOnUse">
<stop stop-color="#CE18C5"/>
<stop offset="0.05" stop-color="#B414B6"/>
<stop offset="0.15" stop-color="#890E9D"/>
<stop offset="0.25" stop-color="#67098A"/>
<stop offset="0.34" stop-color="#4F067B"/>
<stop offset="0.43" stop-color="#400473"/>
<stop offset="0.5" stop-color="#3B0370"/>
<stop offset="0.57" stop-color="#3A0772"/>
<stop offset="0.63" stop-color="#37137A"/>
<stop offset="0.7" stop-color="#322787"/>
<stop offset="0.77" stop-color="#2A4298"/>
<stop offset="0.83" stop-color="#2166AF"/>
<stop offset="0.9" stop-color="#1692CB"/>
<stop offset="0.96" stop-color="#08C5EB"/>
<stop offset="1" stop-color="#00E5FF"/>
</linearGradient>
<linearGradient id="paint16_linear_37_484" x1="59.1354" y1="1961.05" x2="3122.18" y2="1961.05" gradientUnits="userSpaceOnUse">
<stop stop-color="#CE18C5"/>
<stop offset="0.05" stop-color="#B414B6"/>
<stop offset="0.15" stop-color="#890E9D"/>
<stop offset="0.25" stop-color="#67098A"/>
<stop offset="0.34" stop-color="#4F067B"/>
<stop offset="0.43" stop-color="#400473"/>
<stop offset="0.5" stop-color="#3B0370"/>
<stop offset="0.57" stop-color="#3A0772"/>
<stop offset="0.63" stop-color="#37137A"/>
<stop offset="0.7" stop-color="#322787"/>
<stop offset="0.77" stop-color="#2A4298"/>
<stop offset="0.83" stop-color="#2166AF"/>
<stop offset="0.9" stop-color="#1692CB"/>
<stop offset="0.96" stop-color="#08C5EB"/>
<stop offset="1" stop-color="#00E5FF"/>
</linearGradient>
<linearGradient id="paint17_linear_37_484" x1="59.1354" y1="2079.92" x2="3122.18" y2="2079.92" gradientUnits="userSpaceOnUse">
<stop stop-color="#CE18C5"/>
<stop offset="0.05" stop-color="#B414B6"/>
<stop offset="0.15" stop-color="#890E9D"/>
<stop offset="0.25" stop-color="#67098A"/>
<stop offset="0.34" stop-color="#4F067B"/>
<stop offset="0.43" stop-color="#400473"/>
<stop offset="0.5" stop-color="#3B0370"/>
<stop offset="0.57" stop-color="#3A0772"/>
<stop offset="0.63" stop-color="#37137A"/>
<stop offset="0.7" stop-color="#322787"/>
<stop offset="0.77" stop-color="#2A4298"/>
<stop offset="0.83" stop-color="#2166AF"/>
<stop offset="0.9" stop-color="#1692CB"/>
<stop offset="0.96" stop-color="#08C5EB"/>
<stop offset="1" stop-color="#00E5FF"/>
</linearGradient>
<linearGradient id="paint18_linear_37_484" x1="59.1354" y1="2198.79" x2="3122.18" y2="2198.79" gradientUnits="userSpaceOnUse">
<stop stop-color="#CE18C5"/>
<stop offset="0.05" stop-color="#B414B6"/>
<stop offset="0.15" stop-color="#890E9D"/>
<stop offset="0.25" stop-color="#67098A"/>
<stop offset="0.34" stop-color="#4F067B"/>
<stop offset="0.43" stop-color="#400473"/>
<stop offset="0.5" stop-color="#3B0370"/>
<stop offset="0.57" stop-color="#3A0772"/>
<stop offset="0.63" stop-color="#37137A"/>
<stop offset="0.7" stop-color="#322787"/>
<stop offset="0.77" stop-color="#2A4298"/>
<stop offset="0.83" stop-color="#2166AF"/>
<stop offset="0.9" stop-color="#1692CB"/>
<stop offset="0.96" stop-color="#08C5EB"/>
<stop offset="1" stop-color="#00E5FF"/>
</linearGradient>
<linearGradient id="paint19_linear_37_484" x1="59.1354" y1="2317.43" x2="3122.18" y2="2317.43" gradientUnits="userSpaceOnUse">
<stop stop-color="#CE18C5"/>
<stop offset="0.05" stop-color="#B414B6"/>
<stop offset="0.15" stop-color="#890E9D"/>
<stop offset="0.25" stop-color="#67098A"/>
<stop offset="0.34" stop-color="#4F067B"/>
<stop offset="0.43" stop-color="#400473"/>
<stop offset="0.5" stop-color="#3B0370"/>
<stop offset="0.57" stop-color="#3A0772"/>
<stop offset="0.63" stop-color="#37137A"/>
<stop offset="0.7" stop-color="#322787"/>
<stop offset="0.77" stop-color="#2A4298"/>
<stop offset="0.83" stop-color="#2166AF"/>
<stop offset="0.9" stop-color="#1692CB"/>
<stop offset="0.96" stop-color="#08C5EB"/>
<stop offset="1" stop-color="#00E5FF"/>
</linearGradient>
<linearGradient id="paint20_linear_37_484" x1="59.1354" y1="2436.31" x2="3122.18" y2="2436.31" gradientUnits="userSpaceOnUse">
<stop stop-color="#CE18C5"/>
<stop offset="0.05" stop-color="#B414B6"/>
<stop offset="0.15" stop-color="#890E9D"/>
<stop offset="0.25" stop-color="#67098A"/>
<stop offset="0.34" stop-color="#4F067B"/>
<stop offset="0.43" stop-color="#400473"/>
<stop offset="0.5" stop-color="#3B0370"/>
<stop offset="0.57" stop-color="#3A0772"/>
<stop offset="0.63" stop-color="#37137A"/>
<stop offset="0.7" stop-color="#322787"/>
<stop offset="0.77" stop-color="#2A4298"/>
<stop offset="0.83" stop-color="#2166AF"/>
<stop offset="0.9" stop-color="#1692CB"/>
<stop offset="0.96" stop-color="#08C5EB"/>
<stop offset="1" stop-color="#00E5FF"/>
</linearGradient>
<linearGradient id="paint21_linear_37_484" x1="59.1354" y1="10153.3" x2="3122.18" y2="10153.3" gradientUnits="userSpaceOnUse">
<stop stop-color="#CE18C5"/>
<stop offset="0.05" stop-color="#B414B6"/>
<stop offset="0.15" stop-color="#890E9D"/>
<stop offset="0.25" stop-color="#67098A"/>
<stop offset="0.34" stop-color="#4F067B"/>
<stop offset="0.43" stop-color="#400473"/>
<stop offset="0.5" stop-color="#3B0370"/>
<stop offset="0.57" stop-color="#3A0772"/>
<stop offset="0.63" stop-color="#37137A"/>
<stop offset="0.7" stop-color="#322787"/>
<stop offset="0.77" stop-color="#2A4298"/>
<stop offset="0.83" stop-color="#2166AF"/>
<stop offset="0.9" stop-color="#1692CB"/>
<stop offset="0.96" stop-color="#08C5EB"/>
<stop offset="1" stop-color="#00E5FF"/>
</linearGradient>
<linearGradient id="paint22_linear_37_484" x1="1200.89" y1="10.5969" x2="7688.89" y2="10.5969" gradientUnits="userSpaceOnUse">
<stop stop-color="#CE18C5"/>
<stop offset="0.05" stop-color="#B414B6"/>
<stop offset="0.15" stop-color="#890E9D"/>
<stop offset="0.25" stop-color="#67098A"/>
<stop offset="0.34" stop-color="#4F067B"/>
<stop offset="0.43" stop-color="#400473"/>
<stop offset="0.5" stop-color="#3B0370"/>
<stop offset="0.57" stop-color="#3A0772"/>
<stop offset="0.63" stop-color="#37137A"/>
<stop offset="0.7" stop-color="#322787"/>
<stop offset="0.77" stop-color="#2A4298"/>
<stop offset="0.83" stop-color="#2166AF"/>
<stop offset="0.9" stop-color="#1692CB"/>
<stop offset="0.96" stop-color="#08C5EB"/>
<stop offset="1" stop-color="#00E5FF"/>
</linearGradient>
<linearGradient id="paint23_linear_37_484" x1="1178.69" y1="10.5969" x2="7681.76" y2="10.5969" gradientUnits="userSpaceOnUse">
<stop stop-color="#CE18C5"/>
<stop offset="0.05" stop-color="#B414B6"/>
<stop offset="0.15" stop-color="#890E9D"/>
<stop offset="0.25" stop-color="#67098A"/>
<stop offset="0.34" stop-color="#4F067B"/>
<stop offset="0.43" stop-color="#400473"/>
<stop offset="0.5" stop-color="#3B0370"/>
<stop offset="0.57" stop-color="#3A0772"/>
<stop offset="0.63" stop-color="#37137A"/>
<stop offset="0.7" stop-color="#322787"/>
<stop offset="0.77" stop-color="#2A4298"/>
<stop offset="0.83" stop-color="#2166AF"/>
<stop offset="0.9" stop-color="#1692CB"/>
<stop offset="0.96" stop-color="#08C5EB"/>
<stop offset="1" stop-color="#00E5FF"/>
</linearGradient>
<linearGradient id="paint24_linear_37_484" x1="1156.31" y1="10.5969" x2="7659.37" y2="10.5969" gradientUnits="userSpaceOnUse">
<stop stop-color="#CE18C5"/>
<stop offset="0.05" stop-color="#B414B6"/>
<stop offset="0.15" stop-color="#890E9D"/>
<stop offset="0.25" stop-color="#67098A"/>
<stop offset="0.34" stop-color="#4F067B"/>
<stop offset="0.43" stop-color="#400473"/>
<stop offset="0.5" stop-color="#3B0370"/>
<stop offset="0.57" stop-color="#3A0772"/>
<stop offset="0.63" stop-color="#37137A"/>
<stop offset="0.7" stop-color="#322787"/>
<stop offset="0.77" stop-color="#2A4298"/>
<stop offset="0.83" stop-color="#2166AF"/>
<stop offset="0.9" stop-color="#1692CB"/>
<stop offset="0.96" stop-color="#08C5EB"/>
<stop offset="1" stop-color="#00E5FF"/>
</linearGradient>
<linearGradient id="paint25_linear_37_484" x1="1133.92" y1="10.5969" x2="7636.99" y2="10.5969" gradientUnits="userSpaceOnUse">
<stop stop-color="#CE18C5"/>
<stop offset="0.05" stop-color="#B414B6"/>
<stop offset="0.15" stop-color="#890E9D"/>
<stop offset="0.25" stop-color="#67098A"/>
<stop offset="0.34" stop-color="#4F067B"/>
<stop offset="0.43" stop-color="#400473"/>
<stop offset="0.5" stop-color="#3B0370"/>
<stop offset="0.57" stop-color="#3A0772"/>
<stop offset="0.63" stop-color="#37137A"/>
<stop offset="0.7" stop-color="#322787"/>
<stop offset="0.77" stop-color="#2A4298"/>
<stop offset="0.83" stop-color="#2166AF"/>
<stop offset="0.9" stop-color="#1692CB"/>
<stop offset="0.96" stop-color="#08C5EB"/>
<stop offset="1" stop-color="#00E5FF"/>
</linearGradient>
<linearGradient id="paint26_linear_37_484" x1="1111.54" y1="10.5969" x2="7614.64" y2="10.5969" gradientUnits="userSpaceOnUse">
<stop stop-color="#CE18C5"/>
<stop offset="0.05" stop-color="#B414B6"/>
<stop offset="0.15" stop-color="#890E9D"/>
<stop offset="0.25" stop-color="#67098A"/>
<stop offset="0.34" stop-color="#4F067B"/>
<stop offset="0.43" stop-color="#400473"/>
<stop offset="0.5" stop-color="#3B0370"/>
<stop offset="0.57" stop-color="#3A0772"/>
<stop offset="0.63" stop-color="#37137A"/>
<stop offset="0.7" stop-color="#322787"/>
<stop offset="0.77" stop-color="#2A4298"/>
<stop offset="0.83" stop-color="#2166AF"/>
<stop offset="0.9" stop-color="#1692CB"/>
<stop offset="0.96" stop-color="#08C5EB"/>
<stop offset="1" stop-color="#00E5FF"/>
</linearGradient>
<linearGradient id="paint27_linear_37_484" x1="-136756" y1="4095.72" x2="-71876.4" y2="4095.72" gradientUnits="userSpaceOnUse">
<stop stop-color="#CE18C5"/>
<stop offset="0.05" stop-color="#B414B6"/>
<stop offset="0.15" stop-color="#890E9D"/>
<stop offset="0.25" stop-color="#67098A"/>
<stop offset="0.34" stop-color="#4F067B"/>
<stop offset="0.43" stop-color="#400473"/>
<stop offset="0.5" stop-color="#3B0370"/>
<stop offset="0.57" stop-color="#3A0772"/>
<stop offset="0.63" stop-color="#37137A"/>
<stop offset="0.7" stop-color="#322787"/>
<stop offset="0.77" stop-color="#2A4298"/>
<stop offset="0.83" stop-color="#2166AF"/>
<stop offset="0.9" stop-color="#1692CB"/>
<stop offset="0.96" stop-color="#08C5EB"/>
<stop offset="1" stop-color="#00E5FF"/>
</linearGradient>
<linearGradient id="paint28_linear_37_484" x1="-136607" y1="2376.79" x2="-71727.1" y2="2376.79" gradientUnits="userSpaceOnUse">
<stop stop-color="#CE18C5"/>
<stop offset="0.05" stop-color="#B414B6"/>
<stop offset="0.15" stop-color="#890E9D"/>
<stop offset="0.25" stop-color="#67098A"/>
<stop offset="0.34" stop-color="#4F067B"/>
<stop offset="0.43" stop-color="#400473"/>
<stop offset="0.5" stop-color="#3B0370"/>
<stop offset="0.57" stop-color="#3A0772"/>
<stop offset="0.63" stop-color="#37137A"/>
<stop offset="0.7" stop-color="#322787"/>
<stop offset="0.77" stop-color="#2A4298"/>
<stop offset="0.83" stop-color="#2166AF"/>
<stop offset="0.9" stop-color="#1692CB"/>
<stop offset="0.96" stop-color="#08C5EB"/>
<stop offset="1" stop-color="#00E5FF"/>
</linearGradient>
<linearGradient id="paint29_linear_37_484" x1="-1675.85" y1="55805.6" x2="-167.024" y2="55805.6" gradientUnits="userSpaceOnUse">
<stop stop-color="#CE18C5"/>
<stop offset="0.05" stop-color="#B414B6"/>
<stop offset="0.15" stop-color="#890E9D"/>
<stop offset="0.25" stop-color="#67098A"/>
<stop offset="0.34" stop-color="#4F067B"/>
<stop offset="0.43" stop-color="#400473"/>
<stop offset="0.5" stop-color="#3B0370"/>
<stop offset="0.57" stop-color="#3A0772"/>
<stop offset="0.63" stop-color="#37137A"/>
<stop offset="0.7" stop-color="#322787"/>
<stop offset="0.77" stop-color="#2A4298"/>
<stop offset="0.83" stop-color="#2166AF"/>
<stop offset="0.9" stop-color="#1692CB"/>
<stop offset="0.96" stop-color="#08C5EB"/>
<stop offset="1" stop-color="#00E5FF"/>
</linearGradient>
<linearGradient id="paint30_linear_37_484" x1="2962.19" y1="13338.7" x2="217126" y2="13338.7" gradientUnits="userSpaceOnUse">
<stop stop-color="#CE18C5"/>
<stop offset="0.05" stop-color="#B414B6"/>
<stop offset="0.15" stop-color="#890E9D"/>
<stop offset="0.25" stop-color="#67098A"/>
<stop offset="0.34" stop-color="#4F067B"/>
<stop offset="0.43" stop-color="#400473"/>
<stop offset="0.5" stop-color="#3B0370"/>
<stop offset="0.57" stop-color="#3A0772"/>
<stop offset="0.63" stop-color="#37137A"/>
<stop offset="0.7" stop-color="#322787"/>
<stop offset="0.77" stop-color="#2A4298"/>
<stop offset="0.83" stop-color="#2166AF"/>
<stop offset="0.9" stop-color="#1692CB"/>
<stop offset="0.96" stop-color="#08C5EB"/>
<stop offset="1" stop-color="#00E5FF"/>
</linearGradient>
<radialGradient id="paint31_radial_37_484" cx="0" cy="0" r="1" gradientUnits="userSpaceOnUse" gradientTransform="translate(774.116 836.532) scale(426.153 16.6043)">
<stop stop-color="white"/>
<stop offset="0.01" stop-color="#E0D2FF"/>
<stop offset="0.03" stop-color="#BB9CFF"/>
<stop offset="0.05" stop-color="#9C6FFF"/>
<stop offset="0.07" stop-color="#844CFF"/>
<stop offset="0.09" stop-color="#7333FF"/>
<stop offset="0.1" stop-color="#6924FF"/>
<stop offset="0.11" stop-color="#651FFF"/>
<stop offset="0.16" stop-color="#5A1CE3" stop-opacity="0.89"/>
<stop offset="0.25" stop-color="#4515AE" stop-opacity="0.68"/>
<stop offset="0.34" stop-color="#331080" stop-opacity="0.5"/>
<stop offset="0.44" stop-color="#230B58" stop-opacity="0.35"/>
<stop offset="0.54" stop-color="#160738" stop-opacity="0.22"/>
<stop offset="0.64" stop-color="#0C041F" stop-opacity="0.12"/>
<stop offset="0.75" stop-color="#05020E" stop-opacity="0.05"/>
<stop offset="0.87" stop-color="#010003" stop-opacity="0.01"/>
<stop offset="1" stop-opacity="0"/>
</radialGradient>
<radialGradient id="paint32_radial_37_484" cx="0" cy="0" r="1" gradientUnits="userSpaceOnUse" gradientTransform="translate(-177744 34483.7) scale(28033.3 473.922)">
<stop stop-color="white"/>
<stop offset="0.01" stop-color="#E0D2FF"/>
<stop offset="0.03" stop-color="#BB9CFF"/>
<stop offset="0.05" stop-color="#9C6FFF"/>
<stop offset="0.07" stop-color="#844CFF"/>
<stop offset="0.09" stop-color="#7333FF"/>
<stop offset="0.1" stop-color="#6924FF"/>
<stop offset="0.11" stop-color="#651FFF"/>
<stop offset="0.16" stop-color="#5A1CE3" stop-opacity="0.89"/>
<stop offset="0.25" stop-color="#4515AE" stop-opacity="0.68"/>
<stop offset="0.34" stop-color="#331080" stop-opacity="0.5"/>
<stop offset="0.44" stop-color="#230B58" stop-opacity="0.35"/>
<stop offset="0.54" stop-color="#160738" stop-opacity="0.22"/>
<stop offset="0.64" stop-color="#0C041F" stop-opacity="0.12"/>
<stop offset="0.75" stop-color="#05020E" stop-opacity="0.05"/>
<stop offset="0.87" stop-color="#010003" stop-opacity="0.01"/>
<stop offset="1" stop-opacity="0"/>
</radialGradient>
<radialGradient id="paint33_radial_37_484" cx="0" cy="0" r="1" gradientUnits="userSpaceOnUse" gradientTransform="translate(85.1922 549.063) rotate(90) scale(149.455 26.8537)">
<stop stop-color="white"/>
<stop offset="0.02" stop-color="#F7C1EF"/>
<stop offset="0.03" stop-color="#EF8BE1"/>
<stop offset="0.04" stop-color="#E95ED6"/>
<stop offset="0.06" stop-color="#E43BCD"/>
<stop offset="0.07" stop-color="#E122C6"/>
<stop offset="0.08" stop-color="#DF13C2"/>
<stop offset="0.09" stop-color="#DE0EC1"/>
<stop offset="0.11" stop-color="#CF0DB4" stop-opacity="0.93"/>
<stop offset="0.2" stop-color="#9F0A8A" stop-opacity="0.72"/>
<stop offset="0.29" stop-color="#740765" stop-opacity="0.52"/>
<stop offset="0.38" stop-color="#500546" stop-opacity="0.36"/>
<stop offset="0.48" stop-color="#33032C" stop-opacity="0.23"/>
<stop offset="0.59" stop-color="#1C0219" stop-opacity="0.13"/>
<stop offset="0.7" stop-color="#0C010B" stop-opacity="0.06"/>
<stop offset="0.83" stop-color="#030003" stop-opacity="0.01"/>
<stop offset="1" stop-opacity="0"/>
</radialGradient>
</defs>
</svg>
