<svg xmlns="http://www.w3.org/2000/svg" xmlns:xlink="http://www.w3.org/1999/xlink" viewBox="0 0 389.29 180.37"><defs><style>.cls-1{fill:url(#linear-gradient);}.cls-2{fill:url(#linear-gradient-2);}.cls-3{fill:url(#linear-gradient-3);}.cls-4{fill:url(#linear-gradient-4);}.cls-5{fill:url(#linear-gradient-5);}.cls-6{fill:url(#linear-gradient-6);}.cls-7{fill:url(#linear-gradient-7);}.cls-8{fill:url(#linear-gradient-8);}.cls-9{fill:url(#linear-gradient-9);}.cls-10{fill:url(#linear-gradient-10);}.cls-11{fill:url(#linear-gradient-11);}.cls-12{fill:url(#linear-gradient-12);}.cls-13{fill:url(#linear-gradient-13);}.cls-14{fill:url(#linear-gradient-14);}.cls-15{fill:url(#linear-gradient-15);}</style><linearGradient id="linear-gradient" x1="273.1" y1="99.24" x2="274.5" y2="99.24" gradientUnits="userSpaceOnUse"><stop offset="0" stop-color="#ef11c9"/><stop offset="0.09" stop-color="#bd0cb0"/><stop offset="0.18" stop-color="#91089a"/><stop offset="0.27" stop-color="#6f0489"/><stop offset="0.36" stop-color="#57027d"/><stop offset="0.44" stop-color="#480176"/><stop offset="0.5" stop-color="#430073"/><stop offset="0.57" stop-color="#420475"/><stop offset="0.63" stop-color="#3e107d"/><stop offset="0.7" stop-color="#392489"/><stop offset="0.77" stop-color="#303f9a"/><stop offset="0.83" stop-color="#2663b0"/><stop offset="0.9" stop-color="#198fcb"/><stop offset="0.96" stop-color="#0ac2ea"/><stop offset="1" stop-color="#00e5ff"/></linearGradient><linearGradient id="linear-gradient-2" x1="289.68" y1="122.35" x2="389.29" y2="122.35" gradientUnits="userSpaceOnUse"><stop offset="0" stop-color="#ef11c9"/><stop offset="0" stop-color="#ee12c9"/><stop offset="0.16" stop-color="#b049d7"/><stop offset="0.32" stop-color="#7a79e3"/><stop offset="0.48" stop-color="#4ea0ed"/><stop offset="0.63" stop-color="#2cbef5"/><stop offset="0.77" stop-color="#14d3fb"/><stop offset="0.89" stop-color="#05e0fe"/><stop offset="1" stop-color="#00e5ff"/></linearGradient><linearGradient id="linear-gradient-3" x1="298.64" y1="148.23" x2="361.27" y2="148.23" xlink:href="#linear-gradient-2"/><linearGradient id="linear-gradient-4" x1="286.36" y1="167.49" x2="334.17" y2="167.49" xlink:href="#linear-gradient-2"/><linearGradient id="linear-gradient-5" x1="0" y1="122.35" x2="99.6" y2="122.35" xlink:href="#linear-gradient-2"/><linearGradient id="linear-gradient-6" x1="28.02" y1="148.23" x2="90.65" y2="148.23" xlink:href="#linear-gradient-2"/><linearGradient id="linear-gradient-7" x1="55.11" y1="167.49" x2="102.93" y2="167.49" xlink:href="#linear-gradient-2"/><linearGradient id="linear-gradient-8" x1="150.4" y1="127.08" x2="238.89" y2="127.08" xlink:href="#linear-gradient-2"/><linearGradient id="linear-gradient-9" x1="94.83" y1="140.21" x2="175.15" y2="140.21" xlink:href="#linear-gradient-2"/><linearGradient id="linear-gradient-10" x1="214.13" y1="140.21" x2="294.46" y2="140.21" xlink:href="#linear-gradient-2"/><linearGradient id="linear-gradient-11" x1="70.91" y1="77.33" x2="70.91" y2="0" xlink:href="#linear-gradient-2"/><linearGradient id="linear-gradient-12" x1="132.78" y1="77.33" x2="132.78" y2="0" xlink:href="#linear-gradient-2"/><linearGradient id="linear-gradient-13" x1="194.64" y1="77.33" x2="194.64" y2="0" xlink:href="#linear-gradient-2"/><linearGradient id="linear-gradient-14" x1="256.51" y1="77.33" x2="256.51" y2="0" xlink:href="#linear-gradient-2"/><linearGradient id="linear-gradient-15" x1="318.38" y1="77.33" x2="318.38" y2="0" xlink:href="#linear-gradient-2"/></defs><g id="Layer_2" data-name="Layer 2"><g id="Layer_1-2" data-name="Layer 1"><path class="cls-1" d="M274.5,99.23h-1.4c.46,0,.94,0,1.4,0Z"/><path class="cls-2" d="M389.27,102a59.14,59.14,0,0,1-23.17,11.3c-8.34,1.93-14.92,1.43-24.88.56-18.89-1.62-21.26-5.3-35.88-4.8a55.42,55.42,0,0,0-15.66,2.51,45.32,45.32,0,0,1,7.69,13.84,73,73,0,0,1,6.75,3.27c2.14,1.11,4.8,2.52,8.18,4.15,4.65,2.26,13.32,6.46,20.05,8.53,1.21.37,2.44.7,3.7,1a48,48,0,0,0,17.33-1.06c11.59-2.93,19-9.56,23.17-13.29s8.55-7.74,11-14.69A30.55,30.55,0,0,0,389.27,102Zm-33.33,26a33.86,33.86,0,0,1-7.89,2.62,30.29,30.29,0,0,1-8.46.42,28.49,28.49,0,0,1-4.24-.75c-1.36-.37-2.67-.8-4-1.24-5.1-1.84-10-3.85-14.9-5.88s-9.83-4.16-14.67-6.59a116.43,116.43,0,0,1,15.77,3.4c5.16,1.43,10.27,3.23,15.22,5a38.49,38.49,0,0,0,7.28,2,35.45,35.45,0,0,0,7.51.27,57.46,57.46,0,0,0,15.25-3.6A35,35,0,0,1,355.94,128Z"/><path class="cls-3" d="M334.88,148.13c-1.55-.34-3-.73-4.26-1.12-7.17-2.21-15.92-6.46-20.9-8.87-4.69-2.27-8-4-10.49-5.34.18,1,.31,2,.4,3.09.08.75.13,1.49.16,2.24,1.4.73,2.77,1.48,4.16,2.21,2.9,1.55,5.78,3.08,8.68,4.55s5.82,2.92,8.77,4.37,6,2.88,9,4.55a37.33,37.33,0,0,1-10.16-1.37,50.41,50.41,0,0,1-18.13-9.29c-.77-.63-1.53-1.27-2.25-2a45.65,45.65,0,0,1-1.19,9.42,97.79,97.79,0,0,0,8.85,5.86A58.85,58.85,0,0,0,332,163.65h0a45.73,45.73,0,0,0,18.32-6.34,47.12,47.12,0,0,0,10.91-8.84A67.53,67.53,0,0,1,334.88,148.13Z"/><path class="cls-4" d="M304.57,161.6a90.87,90.87,0,0,1-7.76-5c-.2.5-.4,1-.6,1.49-.38.89-.79,1.75-1.22,2.6,2.06,1.17,4.11,2.38,6.14,3.67a57.44,57.44,0,0,1,6.19,4.42,26.1,26.1,0,0,1-7.61-1.35,38.17,38.17,0,0,1-6.84-3,45.06,45.06,0,0,1-6.51,8.11,40.15,40.15,0,0,0,9.92,4.43c11.51,3.31,21.69.17,25.33-1a47.22,47.22,0,0,0,12.56-6.26l-2.14-.13C319.15,168.58,310.33,164.88,304.57,161.6Z"/><path class="cls-5" d="M53.25,142.35c1.24-.28,2.48-.61,3.69-1,6.74-2.07,15.4-6.27,20-8.53,3.38-1.63,6-3,8.18-4.15a71.38,71.38,0,0,1,6.75-3.26,45.23,45.23,0,0,1,7.68-13.85A55.28,55.28,0,0,0,84,109.07c-14.63-.5-17,3.18-35.89,4.8-10,.87-16.53,1.37-24.86-.56A59.12,59.12,0,0,1,0,102a30.34,30.34,0,0,0,1.7,11.3c2.47,7,6.91,11,11,14.69s11.57,10.36,23.17,13.29A48,48,0,0,0,53.25,142.35ZM26.44,123.69a57.55,57.55,0,0,0,15.25,3.6A35.42,35.42,0,0,0,49.2,127a38.49,38.49,0,0,0,7.28-2c5-1.77,10.06-3.57,15.22-5a116.76,116.76,0,0,1,15.77-3.4c-4.83,2.43-9.74,4.53-14.67,6.59s-9.8,4-14.9,5.88c-1.29.44-2.6.87-4,1.24a28.72,28.72,0,0,1-4.24.75,30.29,30.29,0,0,1-8.46-.42A33.7,33.7,0,0,1,33.35,128,35,35,0,0,1,26.44,123.69Z"/><path class="cls-6" d="M81.8,156.48a97.79,97.79,0,0,0,8.85-5.86,45,45,0,0,1-1.19-9.42c-.72.68-1.48,1.32-2.25,2a50.41,50.41,0,0,1-18.13,9.29,37.38,37.38,0,0,1-10.16,1.37c3-1.67,6-3.09,9-4.55s5.87-2.89,8.77-4.37,5.78-3,8.68-4.55c1.38-.73,2.76-1.48,4.16-2.21,0-.75.08-1.49.16-2.24.09-1,.22-2.07.4-3.09-.8.4-1.66.85-2.61,1.36l-1.09.56c-.58.31-1.21.64-1.88,1-.28.15-.58.31-.88.45-1.22.62-2.55,1.29-4,2-5,2.41-13.73,6.66-20.9,8.87-1.29.39-2.7.78-4.26,1.12a67.52,67.52,0,0,1-26.39.34,46.91,46.91,0,0,0,10.91,8.84,45.48,45.48,0,0,0,18.34,6.34A58.83,58.83,0,0,0,81.8,156.48Z"/><path class="cls-7" d="M89.58,167.39A26.1,26.1,0,0,1,82,168.74a56.47,56.47,0,0,1,6.19-4.42c2-1.29,4.08-2.5,6.14-3.67-.43-.85-.84-1.71-1.22-2.6-.2-.5-.41-1-.6-1.5-1.32.95-2.67,1.88-4,2.75-.42.28-.85.55-1.27.81l-1.25.77-1.23.72c-5.77,3.28-14.58,7-27.46,8l-2.15.13A47.39,47.39,0,0,0,67.69,176c3.64,1.16,13.81,4.3,25.32,1a40.67,40.67,0,0,0,9.92-4.42,45.48,45.48,0,0,1-6.51-8.12A38.17,38.17,0,0,1,89.58,167.39Z"/><path class="cls-8" d="M238.89,97.36H150.4a45.59,45.59,0,0,1,30.14,42.86,45.11,45.11,0,0,1-3.14,16.59h34.49a45.11,45.11,0,0,1-3.14-16.59A45.59,45.59,0,0,1,238.89,97.36Z"/><path class="cls-9" d="M135,100.05a40.26,40.26,0,0,0-36.75,24,39.46,39.46,0,0,0-2.17,6.25,38.35,38.35,0,0,0-.91,4.8A39.88,39.88,0,0,0,97,153.23c.17.51.35,1,.55,1.51a42.12,42.12,0,0,0,3.37,6.71A40.16,40.16,0,1,0,135,100.05Zm27,44.1a5.14,5.14,0,0,1-5.14,5.14H143.91v12.94a5.13,5.13,0,0,1-5.14,5.14h-7.55a5.13,5.13,0,0,1-5.14-5.14V149.29h-13a5.12,5.12,0,0,1-2.91-.91h0a5.12,5.12,0,0,1-2.2-3.89,1.94,1.94,0,0,1,0-.34v-7.56a5.16,5.16,0,0,1,.16-1.25,5.08,5.08,0,0,1,1.14-2.15,5.14,5.14,0,0,1,3.84-1.74h13V118.51a5.14,5.14,0,0,1,5.14-5.14h7.55a5.14,5.14,0,0,1,5.14,5.14v12.94h12.94a5.14,5.14,0,0,1,5.14,5.14Z"/><path class="cls-10" d="M290.26,158.08c.55-1.08,1-2.2,1.49-3.34.19-.5.38-1,.55-1.51a40.33,40.33,0,0,0,1.83-18.17,36.64,36.64,0,0,0-.92-4.8,39.43,39.43,0,0,0-2.16-6.25,40.32,40.32,0,0,0-35.69-24H254.3a40.16,40.16,0,1,0,27.56,69.34,39.77,39.77,0,0,0,6.51-7.94A38.25,38.25,0,0,0,290.26,158.08ZM255.36,110a11.22,11.22,0,1,1-11.21,11.22A11.22,11.22,0,0,1,255.36,110Zm-21,41.59a11.22,11.22,0,1,1,11.22-11.22A11.22,11.22,0,0,1,234.39,151.59Zm21,18.83a11.21,11.21,0,1,1,11.22-11.21A11.21,11.21,0,0,1,255.36,170.42Zm18.84-18.83a11.22,11.22,0,1,1,11.21-11.22A11.22,11.22,0,0,1,274.2,151.59Z"/><path class="cls-11" d="M47.71,77.33V72.18H42.56V56.71H58v5.16H83.8V46.4H47.71V41.24H42.56V5.16h5.15V0h46.4V5.16h5.16V20.62H83.8V15.47H58V30.93H94.11v5.16h5.16V72.18H94.11v5.15Z"/><path class="cls-12" d="M104.42,77.33V0H156V5.16h5.15V41.24H156V46.4H119.89V77.33Zm41.25-46.4V15.47H119.89V30.93Z"/><path class="cls-13" d="M171.44,77.33V72.18h-5.15v-67h5.15V0h46.4V5.16H223v67h-5.16v5.15Zm36.09-15.46V15.47H181.76v46.4Z"/><path class="cls-14" d="M248.78,77.33V15.47H228.16V0h56.71V15.47H264.24V77.33Z"/><path class="cls-15" d="M295.18,77.33V72.18H290v-67h5.16V0h46.4V5.16h5.15v67h-5.15v5.15Zm36.09-15.46V15.47H305.49v46.4Z"/></g></g></svg>