<svg xmlns="http://www.w3.org/2000/svg" viewBox="0 0 512 208.42"><defs><style>.cls-1{fill:#00e5ff;}.cls-2{fill:#129ad6;}.cls-3{fill:#e03339;}.cls-4{fill:#fcdd10;}.cls-5{fill:#89c94e;}</style></defs><g id="Layer_2" data-name="Layer 2"><g id="Layer_1-2" data-name="Layer 1"><path class="cls-1" d="M357.16,151.44l-1.39.38a7.4,7.4,0,0,1-2.12.31,7.82,7.82,0,0,1-5.56-2.35l-.06-.05a20.82,20.82,0,0,1,4.56.28l.37.06A16.56,16.56,0,0,1,357.16,151.44Z"/><path class="cls-1" d="M385.64,142.5a51.09,51.09,0,0,1,1.21,6.32c-2-.17-4.09-.25-6.27-.25-2.43,0-4.78.11-6.95.27s-4,.34-5.73.56c-.64-.52-1.25-1-1.87-1.47a35.24,35.24,0,0,1,4.6-3A23.57,23.57,0,0,1,381,142,16.8,16.8,0,0,1,385.64,142.5Z"/><path class="cls-1" d="M440.44,166a113.87,113.87,0,0,1-18.72-4.16,77.26,77.26,0,0,1-18.64-8,31.31,31.31,0,0,0-9-4c-.12-1.38-.29-2.73-.53-4.08,3.34,1.71,7.63,4,13.8,7,6.55,3.17,18.06,8.76,27.48,11.66C436.53,165.05,438.4,165.57,440.44,166Z"/><path class="cls-1" d="M374.2,120.83a52.89,52.89,0,0,1,8.59,13.46c-.37,0-.75,0-1.13,0l-.86,0c-6.37.19-12.59,2.49-18.6,6.84h0c-.72.55-1.44,1.09-2.16,1.67h0l-.42.08c-.66.15-1.29.29-1.87.44a27.36,27.36,0,0,0-3.3-.86h-.11a37.62,37.62,0,0,1,4.17-8.12,40.26,40.26,0,0,1,14.12-12.62C373.11,121.41,373.64,121.11,374.2,120.83Z"/><path class="cls-1" d="M512,105.35a77.71,77.71,0,0,1-30.47,14.87c-11,2.53-19.62,1.87-32.71.73-24.86-2.13-28-7-47.2-6.31a72.33,72.33,0,0,0-20.59,3.3,60,60,0,0,1,10.11,18.2c2.66,1.06,5.46,2.51,8.88,4.3,2.81,1.47,6.31,3.31,10.75,5.46,6.12,3,17.52,8.49,26.37,11.22,1.59.49,3.22.93,4.88,1.29a63,63,0,0,0,22.78-1.4c15.25-3.85,25-12.56,30.48-17.48s11.24-10.18,14.49-19.31A39.9,39.9,0,0,0,512,105.35Zm-43.83,34.22A44,44,0,0,1,457.76,143a40.13,40.13,0,0,1-11.12.56,39.7,39.7,0,0,1-5.58-1c-1.79-.49-3.51-1.05-5.21-1.63-6.71-2.42-13.11-5.07-19.6-7.74s-12.92-5.47-19.29-8.66A152.75,152.75,0,0,1,417.7,129c6.79,1.88,13.51,4.24,20,6.58a51.08,51.08,0,0,0,9.57,2.63,46.46,46.46,0,0,0,9.88.36c6.7-.45,13.36-2.34,20.05-4.73A45.67,45.67,0,0,1,468.14,139.57Z"/><path class="cls-1" d="M374.2,120.83a52.89,52.89,0,0,1,8.59,13.46c-.37,0-.75,0-1.13,0l-.86,0c-6.37.19-12.59,2.49-18.6,6.84h0c-.72.55-1.44,1.09-2.16,1.67h0l-.42.08c-.66.15-1.29.29-1.87.44a27.36,27.36,0,0,0-3.3-.86h-.11a37.62,37.62,0,0,1,4.17-8.12,40.26,40.26,0,0,1,14.12-12.62C373.11,121.41,373.64,121.11,374.2,120.83Z"/><path class="cls-1" d="M512,105.35a77.71,77.71,0,0,1-30.47,14.87c-11,2.53-19.62,1.87-32.71.73-24.86-2.13-28-7-47.2-6.31a72.33,72.33,0,0,0-20.59,3.3,60,60,0,0,1,10.11,18.2c2.66,1.06,5.46,2.51,8.88,4.3,2.81,1.47,6.31,3.31,10.75,5.46,6.12,3,17.52,8.49,26.37,11.22,1.59.49,3.22.93,4.88,1.29a63,63,0,0,0,22.78-1.4c15.25-3.85,25-12.56,30.48-17.48s11.24-10.18,14.49-19.31A39.9,39.9,0,0,0,512,105.35Zm-43.83,34.22A44,44,0,0,1,457.76,143a40.13,40.13,0,0,1-11.12.56,39.7,39.7,0,0,1-5.58-1c-1.79-.49-3.51-1.05-5.21-1.63-6.71-2.42-13.11-5.07-19.6-7.74s-12.92-5.47-19.29-8.66A152.75,152.75,0,0,1,417.7,129c6.79,1.88,13.51,4.24,20,6.58a51.08,51.08,0,0,0,9.57,2.63,46.46,46.46,0,0,0,9.88.36c6.7-.45,13.36-2.34,20.05-4.73A45.67,45.67,0,0,1,468.14,139.57Z"/><path class="cls-1" d="M376.3,166.38c2.17,1.74,5,4,8.13,6.34-.21.66-.46,1.33-.72,2a39.85,39.85,0,0,0-9.77-6.08c-1.28-.54-2.58-1-3.91-1.45a48.18,48.18,0,0,0-13.56-2.24,7.74,7.74,0,0,1-5.79-12.64l.47-.58c.48-.59,1-1.14,1.44-1.7a2.2,2.2,0,0,1,.37.07,15.68,15.68,0,0,1,4.2,1.36,21.34,21.34,0,0,1,3,1.79c1.77,1.25,3.72,2.87,6.28,5,1.83,1.55,4,3.36,6.61,5.5C374.05,164.58,375.14,165.46,376.3,166.38Z"/><path class="cls-1" d="M436.69,194.21c-1.67.15-3.39.23-5.17.23-1.13,0-2.28,0-3.41-.1-17.86-1.07-31.65-10.54-38.27-15.11l-.26-.17c.27-.64.53-1.31.78-2,3.4,2.42,6.91,4.75,10.21,6.63C408.15,188,419.75,192.9,436.69,194.21Z"/><path class="cls-1" d="M386.85,148.82a54.25,54.25,0,0,1,.43,6.78,51.93,51.93,0,0,1-.76,9c-2.06-1.6-3.91-3.07-5.4-4.25-2.17-1.72-4.07-3.27-5.74-4.67-1.32-1.1-2.5-2.09-3.57-3-1.4-1.18-2.69-2.26-3.91-3.24-.64-.52-1.25-1-1.87-1.47a35.24,35.24,0,0,1,4.6-3A23.57,23.57,0,0,1,381,142a16.8,16.8,0,0,1,4.6.46A51.09,51.09,0,0,1,386.85,148.82Z"/><path class="cls-1" d="M475.15,166.46a61.89,61.89,0,0,1-14.35,11.62,60.11,60.11,0,0,1-24.1,8.35h0c-12.23-1-23.06-4.18-32.27-9.44a130.35,130.35,0,0,1-11.63-7.71,59.51,59.51,0,0,0,1.56-12.39c1,.9,1.94,1.74,3,2.57a65.73,65.73,0,0,0,23.85,12.21,48.44,48.44,0,0,0,13.36,1.81c-4-2.2-7.92-4.06-11.8-6s-7.71-3.8-11.54-5.74-7.6-3.95-11.41-6c-1.82-1-3.63-2-5.47-2.91q-.06-1.49-.21-2.94c-.12-1.38-.29-2.73-.53-4.08,3.34,1.71,7.63,4,13.8,7,6.55,3.17,18.06,8.76,27.48,11.66,1.7.52,3.57,1,5.61,1.48C448.94,167.93,460.43,169,475.15,166.46Z"/><path class="cls-1" d="M366.43,158.26a57.46,57.46,0,0,0-9.76-1.08c1.19-1.44,2.35-2.75,3.49-4C361.93,154.47,363.88,156.11,366.43,158.26Z"/><path class="cls-1" d="M386.85,148.82a54.25,54.25,0,0,1,.43,6.78,51.93,51.93,0,0,1-.76,9c-2.06-1.6-3.91-3.07-5.4-4.25-2.17-1.72-4.07-3.27-5.74-4.67-1.32-1.1-2.5-2.09-3.57-3-1.4-1.18-2.69-2.26-3.91-3.24-.64-.52-1.25-1-1.87-1.47a35.24,35.24,0,0,1,4.6-3A23.57,23.57,0,0,1,381,142a16.8,16.8,0,0,1,4.6.46A51.09,51.09,0,0,1,386.85,148.82Z"/><path class="cls-1" d="M475.15,166.46a61.89,61.89,0,0,1-14.35,11.62,60.11,60.11,0,0,1-24.1,8.35h0c-12.23-1-23.06-4.18-32.27-9.44a130.35,130.35,0,0,1-11.63-7.71,59.51,59.51,0,0,0,1.56-12.39c1,.9,1.94,1.74,3,2.57a65.73,65.73,0,0,0,23.85,12.21,48.44,48.44,0,0,0,13.36,1.81c-4-2.2-7.92-4.06-11.8-6s-7.71-3.8-11.54-5.74-7.6-3.95-11.41-6c-1.82-1-3.63-2-5.47-2.91q-.06-1.49-.21-2.94c-.12-1.38-.29-2.73-.53-4.08,3.34,1.71,7.63,4,13.8,7,6.55,3.17,18.06,8.76,27.48,11.66,1.7.52,3.57,1,5.61,1.48C448.94,167.93,460.43,169,475.15,166.46Z"/><path class="cls-1" d="M379.28,183.52A53.59,53.59,0,0,1,370.71,194a98.47,98.47,0,0,1-11.58-11c-5.67-6.08-7.53-9.93-14.36-14.83a52.73,52.73,0,0,0-8.92-5.16,55.77,55.77,0,0,0-10-3.46,58.23,58.23,0,0,1,10-6.44,30.76,30.76,0,0,1,11.32-3.35c.29,0,.57,0,.86-.05a21.45,21.45,0,0,1,4.56.28,2.2,2.2,0,0,1,.37.07,15.68,15.68,0,0,1,4.2,1.36,21.34,21.34,0,0,1,3,1.79c1.77,1.25,3.72,2.87,6.28,5,1.83,1.55,4,3.36,6.61,5.5,1,.82,2.09,1.7,3.25,2.62,2.17,1.74,5,4,8.13,6.34-.21.66-.46,1.33-.72,2-.58,1.51-1.23,3-1.95,4.4A50.1,50.1,0,0,1,379.28,183.52Z"/><path class="cls-1" d="M439.5,194.38A61.83,61.83,0,0,1,423,202.61c-4.78,1.53-18.17,5.66-33.31,1.3a52.46,52.46,0,0,1-13-5.82,60,60,0,0,0,8.56-10.67,49.54,49.54,0,0,0,9,3.92,34.18,34.18,0,0,0,10,1.78,73.69,73.69,0,0,0-8.15-5.81c-2.67-1.7-5.36-3.3-8.07-4.83.57-1.11,1.1-2.25,1.6-3.42.27-.64.53-1.31.78-2,3.4,2.42,6.91,4.75,10.21,6.63,7.58,4.31,19.18,9.17,36.12,10.48Z"/><path class="cls-1" d="M379.28,183.52A53.59,53.59,0,0,1,370.71,194a98.47,98.47,0,0,1-11.58-11c-5.67-6.08-7.53-9.93-14.36-14.83a52.73,52.73,0,0,0-8.92-5.16,55.77,55.77,0,0,0-10-3.46,58.23,58.23,0,0,1,10-6.44,30.76,30.76,0,0,1,11.32-3.35c.29,0,.57,0,.86-.05a21.45,21.45,0,0,1,4.56.28,2.2,2.2,0,0,1,.37.07,15.68,15.68,0,0,1,4.2,1.36,21.34,21.34,0,0,1,3,1.79c1.77,1.25,3.72,2.87,6.28,5,1.83,1.55,4,3.36,6.61,5.5,1,.82,2.09,1.7,3.25,2.62,2.17,1.74,5,4,8.13,6.34-.21.66-.46,1.33-.72,2-.58,1.51-1.23,3-1.95,4.4A50.1,50.1,0,0,1,379.28,183.52Z"/><path class="cls-1" d="M439.5,194.38A61.83,61.83,0,0,1,423,202.61c-4.78,1.53-18.17,5.66-33.31,1.3a52.46,52.46,0,0,1-13-5.82,60,60,0,0,0,8.56-10.67,49.54,49.54,0,0,0,9,3.92,34.18,34.18,0,0,0,10,1.78,73.69,73.69,0,0,0-8.15-5.81c-2.67-1.7-5.36-3.3-8.07-4.83.57-1.11,1.1-2.25,1.6-3.42.27-.64.53-1.31.78-2,3.4,2.42,6.91,4.75,10.21,6.63,7.58,4.31,19.18,9.17,36.12,10.48Z"/><path class="cls-1" d="M381.76,179.1a50.1,50.1,0,0,1-2.48,4.42c-.87-.65-1.7-1.33-2.52-2a34.84,34.84,0,0,1-6.67-7.66,76.36,76.36,0,0,1,9.16,4C380.09,178.23,380.93,178.66,381.76,179.1Z"/><path class="cls-1" d="M115,147.63c1.25-.66,2.39-1.26,3.44-1.79-.23,1.35-.41,2.7-.53,4.08a31.55,31.55,0,0,0-9,4,77.26,77.26,0,0,1-18.64,8A113.39,113.39,0,0,1,71.56,166c2-.44,3.91-1,5.61-1.48,9.42-2.9,20.93-8.49,27.49-11.66,1.94-.93,3.69-1.81,5.29-2.63.39-.19.79-.39,1.17-.6.87-.43,1.69-.86,2.47-1.27C114.08,148.12,114.55,147.88,115,147.63Z"/><path class="cls-1" d="M143.73,146.36a6.53,6.53,0,0,0-1.5,2.82,100.82,100.82,0,0,0-10.82-.61c-2.17,0-4.28.08-6.26.25a51.09,51.09,0,0,1,1.21-6.32l.11,0,.11,0,.74-.15.68-.11.3,0a7.71,7.71,0,0,1,.84-.08q.88-.06,1.83,0c.36,0,.72,0,1.1.07l1.17.12c.27,0,.54.08.82.14s.55.11.85.16c.53.12,1.09.26,1.66.44a.28.28,0,0,1,.12,0c.3.08.61.19.92.29l.72.26.3.13a1.09,1.09,0,0,1,.23.09c.56.23,1.13.48,1.71.77l.58.3a.06.06,0,0,0,0,0l.66.36C142.47,145.57,143.1,146,143.73,146.36Z"/><path class="cls-1" d="M153.53,134.33a40.27,40.27,0,0,0-14.13-12.62c-.51-.3-1-.6-1.6-.88a52.89,52.89,0,0,0-8.59,13.46c.37,0,.75,0,1.13,0l.87,0a30.21,30.21,0,0,1,10.56,2.3A41.46,41.46,0,0,1,152,142.8c.38.3.76.63,1.12.94.38-.15.78-.3,1.18-.42a27.86,27.86,0,0,1,3.3-.86h.11A39,39,0,0,0,153.53,134.33Zm-43.12-19.69C91.18,114,88.07,118.82,63.22,121c-13.1,1.14-21.75,1.8-32.7-.73A77.75,77.75,0,0,1,0,105.35a39.69,39.69,0,0,0,2.23,14.87c3.25,9.13,9.09,14.48,14.51,19.31S32,153.16,47.24,157A63,63,0,0,0,70,158.41c1.64-.36,3.27-.8,4.86-1.29,8.86-2.73,20.25-8.25,26.37-11.22,4.44-2.15,7.94-4,10.75-5.46a98.6,98.6,0,0,1,8.88-4.29A59.47,59.47,0,0,1,131,117.94,72.33,72.33,0,0,0,110.41,114.64ZM95.75,133.22c-6.49,2.67-12.89,5.32-19.6,7.74-1.7.58-3.42,1.14-5.21,1.63a39.7,39.7,0,0,1-5.58,1A40.13,40.13,0,0,1,54.24,143a44,44,0,0,1-10.38-3.45,46,46,0,0,1-9.08-5.7c6.69,2.39,13.37,4.28,20,4.73a46.42,46.42,0,0,0,9.88-.36,51.08,51.08,0,0,0,9.57-2.63c6.51-2.34,13.23-4.7,20-6.58A153.08,153.08,0,0,1,115,124.56C108.69,127.75,102.23,130.52,95.75,133.22Z"/><path class="cls-1" d="M153.53,134.33a40.27,40.27,0,0,0-14.13-12.62c-.51-.3-1-.6-1.6-.88a52.89,52.89,0,0,0-8.59,13.46c.37,0,.75,0,1.13,0l.87,0a30.21,30.21,0,0,1,10.56,2.3A41.46,41.46,0,0,1,152,142.8l.43.08c.65.15,1.28.29,1.87.44a27.86,27.86,0,0,1,3.3-.86h.11A39,39,0,0,0,153.53,134.33Zm-43.12-19.69C91.18,114,88.07,118.82,63.22,121c-13.1,1.14-21.75,1.8-32.7-.73A77.75,77.75,0,0,1,0,105.35a39.69,39.69,0,0,0,2.23,14.87c3.25,9.13,9.09,14.48,14.51,19.31S32,153.16,47.24,157A63,63,0,0,0,70,158.41c1.64-.36,3.27-.8,4.86-1.29,8.86-2.73,20.25-8.25,26.37-11.22,4.44-2.15,7.94-4,10.75-5.46a98.6,98.6,0,0,1,8.88-4.29A59.47,59.47,0,0,1,131,117.94,72.33,72.33,0,0,0,110.41,114.64ZM95.75,133.22c-6.49,2.67-12.89,5.32-19.6,7.74-1.7.58-3.42,1.14-5.21,1.63a39.7,39.7,0,0,1-5.58,1A40.13,40.13,0,0,1,54.24,143a44,44,0,0,1-10.38-3.45,46,46,0,0,1-9.08-5.7c6.69,2.39,13.37,4.28,20,4.73a46.42,46.42,0,0,0,9.88-.36,51.08,51.08,0,0,0,9.57-2.63c6.51-2.34,13.23-4.7,20-6.58A153.08,153.08,0,0,1,115,124.56C108.69,127.75,102.23,130.52,95.75,133.22Z"/><path class="cls-1" d="M141.86,145.23l-.66-.36a.06.06,0,0,1,0,0l-.58-.3c-.58-.29-1.15-.54-1.71-.77a1.09,1.09,0,0,0-.23-.09l-.3-.13-.72-.26c-.31-.1-.62-.21-.92-.29a.28.28,0,0,0-.12,0c-.57-.18-1.13-.32-1.66-.44-.3-.05-.58-.12-.85-.16s-.55-.1-.82-.14l-1.17-.12c-.38,0-.74-.05-1.1-.07q-.94,0-1.83,0a7.71,7.71,0,0,0-.84.08l-.3,0-.68.11-.74.15-.11,0-.11,0a51.09,51.09,0,0,0-1.21,6.32,54.25,54.25,0,0,0-.43,6.78,51.93,51.93,0,0,0,.76,9c2.06-1.6,3.91-3.07,5.4-4.25,3.88-3.08,6.89-5.62,9.31-7.67l1.83-1.53v-.27a6.75,6.75,0,0,1,1.71-4.48C143.1,146,142.47,145.57,141.86,145.23Zm-24.2,11.66c-1,.9-1.94,1.74-3,2.57a65.73,65.73,0,0,1-23.85,12.21,48.44,48.44,0,0,1-13.36,1.81c4-2.2,7.92-4.06,11.8-6s7.72-3.8,11.54-5.74,7.6-3.95,11.41-6c1.82-1,3.63-2,5.47-2.91q.06-1.49.21-2.94c.12-1.38.3-2.73.53-4.08-1,.53-2.19,1.13-3.44,1.79-.46.25-.93.49-1.42.74-.78.41-1.6.84-2.47,1.27-.38.21-.78.41-1.17.6-1.6.82-3.35,1.7-5.29,2.63-6.56,3.17-18.07,8.76-27.49,11.66-1.7.52-3.56,1-5.61,1.48-8.49,1.92-20,2.94-34.7.45A61.8,61.8,0,0,0,51.2,178.08a60,60,0,0,0,24.12,8.35c12.22-1,23.05-4.18,32.27-9.44a130.35,130.35,0,0,0,11.63-7.71A59.51,59.51,0,0,1,117.66,156.89Z"/><path class="cls-1" d="M121.64,177.09c.24.66.51,1.32.78,2a1.77,1.77,0,0,1-.24.17c-6.64,4.57-20.43,14-38.29,15.11-1.13.07-2.27.1-3.41.1-1.78,0-3.5-.08-5.17-.23,16.94-1.31,28.53-6.17,36.12-10.48.53-.3,1.07-.63,1.61-.95l1.65-1c.55-.35,1.11-.7,1.67-1.07C118.12,179.56,119.9,178.34,121.64,177.09Z"/><path class="cls-1" d="M144.94,166.34a42.68,42.68,0,0,0-6.88,2.28,39.48,39.48,0,0,0-9.77,6.08c-.26-.65-.51-1.32-.72-2,3.13-2.38,6-4.6,8.14-6.34,1.25-1,2.42-1.93,3.49-2.82l1.44-1.17c.49-.39,1-.79,1.41-1.17A6.71,6.71,0,0,0,144.94,166.34Z"/><path class="cls-1" d="M141.86,145.23l-.66-.36a.06.06,0,0,1,0,0l-.58-.3c-.58-.29-1.15-.54-1.71-.77a1.09,1.09,0,0,0-.23-.09l-.3-.13-.72-.26c-.31-.1-.62-.21-.92-.29a.28.28,0,0,0-.12,0c-.57-.18-1.13-.32-1.66-.44-.3-.05-.58-.12-.85-.16s-.55-.1-.82-.14l-1.17-.12c-.38,0-.74-.05-1.1-.07q-.94,0-1.83,0a7.71,7.71,0,0,0-.84.08l-.3,0-.68.11-.74.15-.11,0-.11,0a51.09,51.09,0,0,0-1.21,6.32,54.25,54.25,0,0,0-.43,6.78,51.93,51.93,0,0,0,.76,9c2.06-1.6,3.91-3.07,5.4-4.25,3.88-3.08,6.89-5.62,9.31-7.67l1.83-1.53v-.27a6.75,6.75,0,0,1,1.71-4.48C143.1,146,142.47,145.57,141.86,145.23Zm-24.2,11.66c-1,.9-1.94,1.74-3,2.57a65.73,65.73,0,0,1-23.85,12.21,48.44,48.44,0,0,1-13.36,1.81c4-2.2,7.92-4.06,11.8-6s7.72-3.8,11.54-5.74,7.6-3.95,11.41-6c1.82-1,3.63-2,5.47-2.91q.06-1.49.21-2.94c.12-1.38.3-2.73.53-4.08-1,.53-2.19,1.13-3.44,1.79-.46.25-.93.49-1.42.74-.78.41-1.6.84-2.47,1.27-.38.21-.78.41-1.17.6-1.6.82-3.35,1.7-5.29,2.63-6.56,3.17-18.07,8.76-27.49,11.66-1.7.52-3.56,1-5.61,1.48-8.49,1.92-20,2.94-34.7.45A61.8,61.8,0,0,0,51.2,178.08a60,60,0,0,0,24.12,8.35c12.22-1,23.05-4.18,32.27-9.44a130.35,130.35,0,0,0,11.63-7.71A59.51,59.51,0,0,1,117.66,156.89Z"/><path class="cls-1" d="M148.78,167.53a6.68,6.68,0,0,1-3.82-1.19h0a6.71,6.71,0,0,1-2.89-5.12c-.45.38-.92.78-1.41,1.17l-1.44,1.17c-1.07.89-2.24,1.83-3.49,2.82-2.18,1.74-5,4-8.14,6.34.21.66.46,1.33.72,2,.58,1.51,1.23,3,2,4.4a47.75,47.75,0,0,0,2.49,4.42A53.18,53.18,0,0,0,141.29,194a97.67,97.67,0,0,0,11.58-11c5.27-5.64,7.25-9.36,12.95-13.79v-1.7Zm-22,19.89a49.54,49.54,0,0,1-9,3.92,34.18,34.18,0,0,1-10,1.78,74.64,74.64,0,0,1,8.15-5.81c2.67-1.7,5.36-3.3,8.07-4.83-.57-1.11-1.09-2.25-1.6-3.42-.27-.65-.54-1.31-.78-2-1.74,1.25-3.52,2.47-5.28,3.61-.56.37-1.12.73-1.67,1.07s-1.1.7-1.65,1-1.08.65-1.61.95c-7.59,4.31-19.18,9.17-36.12,10.48l-2.82.17A62,62,0,0,0,89,202.61c4.78,1.53,18.16,5.66,33.3,1.3a52.82,52.82,0,0,0,13-5.81A60.41,60.41,0,0,1,126.81,187.42Z"/><path class="cls-1" d="M148.78,167.53a6.68,6.68,0,0,1-3.82-1.19h0a6.71,6.71,0,0,1-2.89-5.12c-.45.38-.92.78-1.41,1.17l-1.44,1.17c-1.07.89-2.24,1.83-3.49,2.82-2.18,1.74-5,4-8.14,6.34.21.66.46,1.33.72,2,.58,1.51,1.23,3,2,4.4a47.75,47.75,0,0,0,2.49,4.42A53.18,53.18,0,0,0,141.29,194a97.67,97.67,0,0,0,11.58-11c5.27-5.64,7.25-9.36,12.95-13.79v-1.7Zm-22,19.89a49.54,49.54,0,0,1-9,3.92,34.18,34.18,0,0,1-10,1.78,74.64,74.64,0,0,1,8.15-5.81c2.67-1.7,5.36-3.3,8.07-4.83-.57-1.11-1.09-2.25-1.6-3.42-.27-.65-.54-1.31-.78-2-1.74,1.25-3.52,2.47-5.28,3.61-.56.37-1.12.73-1.67,1.07s-1.1.7-1.65,1-1.08.65-1.61.95c-7.59,4.31-19.18,9.17-36.12,10.48l-2.82.17A62,62,0,0,0,89,202.61c4.78,1.53,18.16,5.66,33.3,1.3a52.82,52.82,0,0,0,13-5.81A60.41,60.41,0,0,1,126.81,187.42Z"/><path class="cls-1" d="M141.91,173.83a34.84,34.84,0,0,1-6.67,7.66c-.82.7-1.65,1.38-2.51,2a47.75,47.75,0,0,1-2.49-4.42c.83-.44,1.67-.87,2.51-1.29A76.36,76.36,0,0,1,141.91,173.83Z"/><path class="cls-1" d="M230.36,155.6a52.39,52.39,0,0,1-4.72,21.83H189.27v-9.9h17a6.75,6.75,0,0,0,6.76-6.76v-9.93a6.76,6.76,0,0,0-6.76-6.76h-17v-17a6.75,6.75,0,0,0-6.76-6.76h-5V102.77A52.88,52.88,0,0,1,230.36,155.6Z"/><path class="cls-1" d="M274.56,155.6a59.35,59.35,0,0,0,4.12,21.83H233.32a59.35,59.35,0,0,0,4.13-21.83,60,60,0,0,0-39.64-56.37H314.19A60,60,0,0,0,274.56,155.6Z"/><path class="cls-1" d="M335.85,99.23v0c-.46,0-.93,0-1.39,0Z"/><path class="cls-1" d="M334.46,102.77c.47,0,.93,0,1.39,0v74.64h-49.5a52.83,52.83,0,0,1,48.11-74.66Z"/><path class="cls-1" d="M387.28,155.6a51.93,51.93,0,0,1-.76,9,50.58,50.58,0,0,1-2.09,8.16c-.21.66-.46,1.33-.72,2-.58,1.51-1.23,3-1.95,4.4a50.1,50.1,0,0,1-2.48,4.42A53.59,53.59,0,0,1,370.71,194a52.81,52.81,0,1,1-36.25-91.21c.47,0,.93,0,1.39,0a53,53,0,0,1,46.94,31.5,51.74,51.74,0,0,1,2.85,8.21,51.09,51.09,0,0,1,1.21,6.32A54.25,54.25,0,0,1,387.28,155.6Z"/><path class="cls-1" d="M334.46,99.23c.46,0,.93,0,1.39,0v0Z"/><path class="cls-2" d="M323,155.81a14.75,14.75,0,1,1-14.75-14.75A14.76,14.76,0,0,1,323,155.81Z"/><path class="cls-3" d="M375.38,155.81a14.75,14.75,0,1,1-14.75-14.75A14.75,14.75,0,0,1,375.38,155.81Z"/><path class="cls-4" d="M350.6,130.61a14.75,14.75,0,1,1-14.74-14.75A14.74,14.74,0,0,1,350.6,130.61Z"/><path class="cls-5" d="M350.6,180.58a14.75,14.75,0,1,1-14.74-14.74A14.74,14.74,0,0,1,350.6,180.58Z"/><path class="cls-1" d="M177.55,102.77a52.95,52.95,0,0,0-48.34,31.52,51.74,51.74,0,0,0-2.85,8.21,51.09,51.09,0,0,0-1.21,6.32,54.25,54.25,0,0,0-.43,6.78,51.93,51.93,0,0,0,.76,9,50.58,50.58,0,0,0,2.09,8.16c.21.66.46,1.33.72,2,.58,1.51,1.23,3,2,4.4a47.75,47.75,0,0,0,2.49,4.42A53.18,53.18,0,0,0,141.29,194a52.81,52.81,0,1,0,36.26-91.21Zm11.72,81.79a6.74,6.74,0,0,1-6.76,6.75h-9.93a6.74,6.74,0,0,1-6.76-6.75v-17h-17a6.68,6.68,0,0,1-3.82-1.19h0a6.71,6.71,0,0,1-2.89-5.12,2.27,2.27,0,0,1,0-.45v-9.93a6.75,6.75,0,0,1,1.71-4.48,6.72,6.72,0,0,1,5.05-2.28h17v-17a6.75,6.75,0,0,1,6.76-6.76h9.93a6.75,6.75,0,0,1,6.76,6.76v17h17a6.76,6.76,0,0,1,6.76,6.76v9.93a6.75,6.75,0,0,1-6.76,6.76h-17Z"/><path class="cls-1" d="M109.07,77.33V72.18h-5.16V56.71h15.47v5.16h25.78V46.4H109.07V41.24h-5.16V5.16h5.16V0h46.4V5.16h5.15V20.62H145.16V15.47H119.38V30.93h36.09v5.16h5.15V72.18h-5.15v5.15Z"/><path class="cls-1" d="M165.78,77.33V0h51.55V5.16h5.16V41.24h-5.16V46.4H181.24V77.33ZM207,30.93V15.47H181.24V30.93Z"/><path class="cls-1" d="M232.8,77.33V72.18h-5.16v-67h5.16V0h46.4V5.16h5.16v67H279.2v5.15Zm36.09-15.46V15.47H243.11v46.4Z"/><path class="cls-1" d="M310.13,77.33V15.47H289.51V0h56.71V15.47H325.6V77.33Z"/><path class="cls-1" d="M356.53,77.33V72.18h-5.15v-67h5.15V0h46.4V5.16h5.16v67h-5.16v5.15Zm36.09-15.46V15.47H366.84v46.4Z"/></g></g></svg>